<?xml version="1.0" encoding="UTF-8" standalone="no"?>
<!DOCTYPE svg PUBLIC "-//W3C//DTD SVG 1.1//EN" "http://www.w3.org/Graphics/SVG/1.1/DTD/svg11.dtd">
<svg width="100%" height="100%" viewBox="0 0 800 800" version="1.1" xmlns="http://www.w3.org/2000/svg" xmlns:xlink="http://www.w3.org/1999/xlink" xml:space="preserve" style="fill-rule:evenodd;clip-rule:evenodd;stroke-linecap:round;stroke-linejoin:round;stroke-miterlimit:1.5;">
    <g transform="matrix(1.75,0,0,1.75,-302.75,-180)">
        <g transform="matrix(5.33333,0,0,6.90312,-807.667,-2003.61)">
            <path d="M201.5,327.952C201.5,327.25 201.139,326.576 200.496,326.079C199.853,325.583 198.981,325.304 198.071,325.304C196.459,325.304 194.541,325.304 192.929,325.304C192.019,325.304 191.147,325.583 190.504,326.079C189.861,326.576 189.5,327.25 189.5,327.952C189.5,332.06 189.5,339.5 189.5,339.5L201.5,339.5C201.5,339.5 201.5,332.06 201.5,327.952Z" style="fill:rgb(145,125,125);"/>
            <path d="M198.093,325.304L198.114,325.304L198.135,325.304L198.157,325.304L198.178,325.305L198.199,325.305L198.22,325.306L198.241,325.307L198.263,325.308L198.284,325.309L198.305,325.31L198.326,325.311L198.347,325.312L198.368,325.313L198.389,325.315L198.41,325.316L198.431,325.318L198.452,325.32L198.473,325.322L198.494,325.324L198.515,325.326L198.536,325.328L198.557,325.33L198.578,325.333L198.599,325.335L198.619,325.338L198.64,325.34L198.661,325.343L198.682,325.346L198.702,325.349L198.723,325.352L198.743,325.355L198.764,325.358L198.785,325.361L198.805,325.365L198.826,325.368L198.846,325.372L198.866,325.376L198.887,325.38L198.907,325.383L198.927,325.387L198.948,325.391L198.968,325.396L198.988,325.4L199.008,325.404L199.028,325.409L199.049,325.413L199.069,325.418L199.089,325.423L199.109,325.428L199.128,325.433L199.148,325.438L199.168,325.443L199.188,325.448L199.208,325.453L199.227,325.459L199.247,325.464L199.267,325.47L199.286,325.475L199.306,325.481L199.325,325.487L199.345,325.493L199.364,325.499L199.383,325.505L199.403,325.511L199.422,325.518L199.441,325.524L199.46,325.531L199.479,325.537L199.498,325.544L199.517,325.551L199.536,325.557L199.555,325.564L199.574,325.571L199.593,325.579L199.612,325.586L199.63,325.593L199.649,325.601L199.667,325.608L199.686,325.616L199.704,325.623L199.723,325.631L199.741,325.639L199.759,325.647L199.778,325.655L199.796,325.663L199.814,325.671L199.832,325.679L199.85,325.688L199.868,325.696L199.885,325.705L199.903,325.713L199.921,325.722L199.939,325.731L199.956,325.74L199.974,325.749L199.991,325.758L200.008,325.767L200.026,325.776L200.043,325.785L200.06,325.795L200.077,325.804L200.094,325.814L200.111,325.823L200.128,325.833L200.145,325.843L200.162,325.853L200.178,325.863L200.195,325.873L200.211,325.883L200.228,325.893L200.244,325.903L200.261,325.914L200.277,325.924L200.293,325.935L200.309,325.945L200.325,325.956L200.341,325.967L200.357,325.978L200.373,325.989L200.388,326L200.404,326.011L200.419,326.022L200.435,326.033L200.45,326.045L200.465,326.056L200.481,326.068L200.496,326.079L200.511,326.091L200.526,326.103L200.541,326.115L200.555,326.126L200.57,326.138L200.584,326.15L200.599,326.162L200.613,326.175L200.627,326.187L200.641,326.199L200.655,326.211L200.669,326.224L200.683,326.236L200.697,326.249L200.71,326.261L200.724,326.274L200.737,326.286L200.75,326.299L200.763,326.312L200.776,326.325L200.789,326.338L200.802,326.35L200.815,326.363L200.827,326.376L200.84,326.39L200.852,326.403L200.864,326.416L200.876,326.429L200.889,326.443L200.9,326.456L200.912,326.469L200.924,326.483L200.936,326.496L200.947,326.51L200.958,326.524L200.97,326.537L200.981,326.551L200.992,326.565L201.003,326.579L201.014,326.592L201.024,326.606L201.035,326.62L201.045,326.634L201.056,326.648L201.066,326.662L201.076,326.677L201.086,326.691L201.096,326.705L201.106,326.719L201.116,326.734L201.125,326.748L201.135,326.762L201.144,326.777L201.153,326.791L201.162,326.806L201.171,326.821L201.18,326.835L201.189,326.85L201.198,326.865L201.206,326.879L201.214,326.894L201.223,326.909L201.231,326.924L201.239,326.939L201.247,326.954L201.255,326.969L201.262,326.984L201.27,326.999L201.278,327.014L201.285,327.029L201.292,327.044L201.299,327.059L201.306,327.075L201.313,327.09L201.32,327.105L201.326,327.12L201.333,327.136L201.339,327.151L201.346,327.167L201.352,327.182L201.358,327.198L201.364,327.213L201.37,327.229L201.375,327.244L201.381,327.26L201.386,327.275L201.391,327.291L201.397,327.307L201.402,327.322L201.407,327.338L201.411,327.354L201.416,327.37L201.421,327.386L201.425,327.401L201.429,327.417L201.434,327.433L201.438,327.449L201.441,327.465L201.445,327.481L201.449,327.497L201.453,327.513L201.456,327.529L201.459,327.545L201.462,327.561L201.465,327.577L201.468,327.593L201.471,327.61L201.474,327.626L201.476,327.642L201.479,327.658L201.481,327.674L201.483,327.691L201.485,327.707L201.487,327.723L201.489,327.739L201.491,327.756L201.492,327.772L201.493,327.788L201.495,327.805L201.496,327.821L201.497,327.837L201.498,327.854L201.498,327.87L201.499,327.887L201.499,327.903L201.5,327.92L201.5,327.936L201.5,327.952L201.5,339.5L189.5,339.5L189.5,327.952L189.5,327.936L189.5,327.92L189.501,327.903L189.501,327.887L189.502,327.87L189.502,327.854L189.503,327.837L189.504,327.821L189.505,327.805L189.507,327.788L189.508,327.772L189.509,327.756L189.511,327.739L189.513,327.723L189.515,327.707L189.517,327.691L189.519,327.674L189.521,327.658L189.524,327.642L189.526,327.626L189.529,327.61L189.532,327.593L189.535,327.577L189.538,327.561L189.541,327.545L189.544,327.529L189.547,327.513L189.551,327.497L189.555,327.481L189.559,327.465L189.562,327.449L189.566,327.433L189.571,327.417L189.575,327.401L189.579,327.386L189.584,327.37L189.589,327.354L189.593,327.338L189.598,327.322L189.603,327.307L189.609,327.291L189.614,327.275L189.619,327.26L189.625,327.244L189.63,327.229L189.636,327.213L189.642,327.198L189.648,327.182L189.654,327.167L189.661,327.151L189.667,327.136L189.674,327.12L189.68,327.105L189.687,327.09L189.694,327.075L189.701,327.059L189.708,327.044L189.715,327.029L189.722,327.014L189.73,326.999L189.738,326.984L189.745,326.969L189.753,326.954L189.761,326.939L189.769,326.924L189.777,326.909L189.786,326.894L189.794,326.879L189.802,326.865L189.811,326.85L189.82,326.835L189.829,326.821L189.838,326.806L189.847,326.791L189.856,326.777L189.865,326.762L189.875,326.748L189.884,326.734L189.894,326.719L189.904,326.705L189.914,326.691L189.924,326.677L189.934,326.662L189.944,326.648L189.955,326.634L189.965,326.62L189.976,326.606L189.986,326.592L189.997,326.579L190.008,326.565L190.019,326.551L190.03,326.537L190.042,326.524L190.053,326.51L190.064,326.496L190.076,326.483L190.088,326.469L190.1,326.456L190.111,326.443L190.124,326.429L190.136,326.416L190.148,326.403L190.16,326.39L190.173,326.376L190.185,326.363L190.198,326.35L190.211,326.338L190.224,326.325L190.237,326.312L190.25,326.299L190.263,326.286L190.276,326.274L190.29,326.261L190.303,326.249L190.317,326.236L190.331,326.224L190.345,326.211L190.359,326.199L190.373,326.187L190.387,326.175L190.401,326.162L190.416,326.15L190.43,326.138L190.445,326.126L190.459,326.115L190.474,326.103L190.489,326.091L190.504,326.079L190.519,326.068L190.535,326.056L190.55,326.045L190.565,326.033L190.581,326.022L190.596,326.011L190.612,326L190.627,325.989L190.643,325.978L190.659,325.967L190.675,325.956L190.691,325.945L190.707,325.935L190.723,325.924L190.739,325.914L190.756,325.903L190.772,325.893L190.789,325.883L190.805,325.873L190.822,325.863L190.838,325.853L190.855,325.843L190.872,325.833L190.889,325.823L190.906,325.814L190.923,325.804L190.94,325.795L190.957,325.785L190.974,325.776L190.992,325.767L191.009,325.758L191.026,325.749L191.044,325.74L191.061,325.731L191.079,325.722L191.097,325.713L191.115,325.705L191.132,325.696L191.15,325.688L191.168,325.679L191.186,325.671L191.204,325.663L191.222,325.655L191.241,325.647L191.259,325.639L191.277,325.631L191.296,325.623L191.314,325.616L191.333,325.608L191.351,325.601L191.37,325.593L191.388,325.586L191.407,325.579L191.426,325.571L191.445,325.564L191.464,325.557L191.483,325.551L191.502,325.544L191.521,325.537L191.54,325.531L191.559,325.524L191.578,325.518L191.597,325.511L191.617,325.505L191.636,325.499L191.655,325.493L191.675,325.487L191.694,325.481L191.714,325.475L191.733,325.47L191.753,325.464L191.773,325.459L191.792,325.453L191.812,325.448L191.832,325.443L191.852,325.438L191.872,325.433L191.891,325.428L191.911,325.423L191.931,325.418L191.951,325.413L191.972,325.409L191.992,325.404L192.012,325.4L192.032,325.396L192.052,325.391L192.073,325.387L192.093,325.383L192.113,325.38L192.134,325.376L192.154,325.372L192.174,325.368L192.195,325.365L192.215,325.361L192.236,325.358L192.257,325.355L192.277,325.352L192.298,325.349L192.318,325.346L192.339,325.343L192.36,325.34L192.381,325.338L192.401,325.335L192.422,325.333L192.443,325.33L192.464,325.328L192.485,325.326L192.506,325.324L192.527,325.322L192.548,325.32L192.569,325.318L192.59,325.316L192.611,325.315L192.632,325.313L192.653,325.312L192.674,325.311L192.695,325.31L192.716,325.309L192.737,325.308L192.759,325.307L192.78,325.306L192.801,325.305L192.822,325.305L192.843,325.304L192.865,325.304L192.886,325.304L192.907,325.304L192.929,325.304L198.071,325.304L198.093,325.304ZM192.929,325.51L192.909,325.511L192.889,325.511L192.87,325.511L192.85,325.511L192.83,325.512L192.811,325.512L192.791,325.513L192.772,325.513L192.752,325.514L192.733,325.515L192.713,325.516L192.694,325.517L192.674,325.518L192.655,325.52L192.636,325.521L192.616,325.522L192.597,325.524L192.577,325.526L192.558,325.527L192.539,325.529L192.52,325.531L192.5,325.533L192.481,325.535L192.462,325.537L192.443,325.539L192.423,325.542L192.404,325.544L192.385,325.547L192.366,325.549L192.347,325.552L192.328,325.555L192.309,325.558L192.29,325.561L192.271,325.564L192.252,325.567L192.233,325.57L192.215,325.574L192.196,325.577L192.177,325.581L192.158,325.584L192.139,325.588L192.121,325.592L192.102,325.595L192.083,325.599L192.065,325.603L192.046,325.608L192.028,325.612L192.009,325.616L191.991,325.62L191.972,325.625L191.954,325.629L191.936,325.634L191.917,325.639L191.899,325.644L191.881,325.648L191.863,325.653L191.845,325.659L191.827,325.664L191.809,325.669L191.791,325.674L191.773,325.68L191.755,325.685L191.737,325.691L191.719,325.696L191.701,325.702L191.683,325.708L191.666,325.714L191.648,325.72L191.631,325.726L191.613,325.732L191.596,325.738L191.578,325.745L191.561,325.751L191.543,325.757L191.526,325.764L191.509,325.771L191.492,325.777L191.474,325.784L191.457,325.791L191.44,325.798L191.423,325.805L191.406,325.812L191.389,325.82L191.373,325.827L191.356,325.834L191.339,325.842L191.322,325.849L191.306,325.857L191.289,325.865L191.273,325.872L191.256,325.88L191.24,325.888L191.224,325.896L191.207,325.904L191.191,325.912L191.175,325.921L191.159,325.929L191.143,325.937L191.127,325.946L191.111,325.955L191.095,325.963L191.079,325.972L191.064,325.981L191.048,325.99L191.033,325.999L191.017,326.008L191.002,326.017L190.986,326.026L190.971,326.035L190.956,326.045L190.941,326.054L190.925,326.063L190.91,326.073L190.895,326.083L190.881,326.092L190.866,326.102L190.851,326.112L190.836,326.122L190.822,326.132L190.807,326.142L190.793,326.152L190.778,326.163L190.764,326.173L190.75,326.183L190.736,326.194L190.722,326.204L190.708,326.215L190.694,326.226L190.68,326.236L190.666,326.247L190.652,326.258L190.639,326.269L190.625,326.28L190.612,326.291L190.599,326.302L190.586,326.313L190.572,326.325L190.559,326.336L190.547,326.347L190.534,326.359L190.521,326.37L190.509,326.382L190.496,326.393L190.484,326.405L190.471,326.416L190.459,326.428L190.447,326.44L190.435,326.452L190.423,326.464L190.411,326.476L190.4,326.488L190.388,326.5L190.377,326.512L190.365,326.524L190.354,326.536L190.343,326.548L190.332,326.56L190.321,326.573L190.31,326.585L190.299,326.598L190.288,326.61L190.278,326.623L190.267,326.635L190.257,326.648L190.246,326.66L190.236,326.673L190.226,326.686L190.216,326.699L190.206,326.711L190.197,326.724L190.187,326.737L190.177,326.75L190.168,326.763L190.159,326.776L190.149,326.789L190.14,326.803L190.131,326.816L190.122,326.829L190.113,326.842L190.105,326.855L190.096,326.869L190.088,326.882L190.079,326.896L190.071,326.909L190.063,326.922L190.055,326.936L190.047,326.95L190.039,326.963L190.031,326.977L190.023,326.99L190.016,327.004L190.008,327.018L190.001,327.032L189.994,327.046L189.987,327.059L189.98,327.073L189.973,327.087L189.966,327.101L189.959,327.115L189.953,327.129L189.946,327.143L189.94,327.157L189.934,327.171L189.928,327.185L189.922,327.2L189.916,327.214L189.91,327.228L189.904,327.242L189.899,327.256L189.893,327.271L189.888,327.285L189.883,327.299L189.878,327.314L189.873,327.328L189.868,327.343L189.863,327.357L189.859,327.372L189.854,327.386L189.85,327.401L189.845,327.415L189.841,327.43L189.837,327.445L189.833,327.459L189.829,327.474L189.825,327.488L189.822,327.503L189.818,327.518L189.815,327.533L189.812,327.547L189.808,327.562L189.805,327.577L189.802,327.592L189.8,327.607L189.797,327.622L189.794,327.636L189.792,327.651L189.79,327.666L189.787,327.681L189.785,327.696L189.783,327.711L189.781,327.726L189.78,327.741L189.778,327.756L189.777,327.771L189.775,327.786L189.774,327.801L189.773,327.816L189.772,327.831L189.771,327.846L189.77,327.862L189.769,327.877L189.769,327.892L189.768,327.907L189.768,327.922L189.768,327.937L189.768,327.953L189.768,339.293L201.232,339.293L201.232,327.953L201.232,327.937L201.232,327.922L201.232,327.907L201.231,327.892L201.231,327.877L201.23,327.862L201.229,327.846L201.228,327.831L201.227,327.816L201.226,327.801L201.225,327.786L201.223,327.771L201.222,327.756L201.22,327.741L201.219,327.726L201.217,327.711L201.215,327.696L201.213,327.681L201.21,327.666L201.208,327.651L201.206,327.636L201.203,327.622L201.2,327.607L201.198,327.592L201.195,327.577L201.192,327.562L201.188,327.547L201.185,327.533L201.182,327.518L201.178,327.503L201.175,327.488L201.171,327.474L201.167,327.459L201.163,327.445L201.159,327.43L201.155,327.415L201.15,327.401L201.146,327.386L201.141,327.372L201.137,327.357L201.132,327.343L201.127,327.328L201.122,327.314L201.117,327.299L201.112,327.285L201.107,327.271L201.101,327.257L201.096,327.242L201.09,327.228L201.084,327.214L201.078,327.2L201.072,327.185L201.066,327.171L201.06,327.157L201.054,327.143L201.047,327.129L201.041,327.115L201.034,327.101L201.027,327.087L201.02,327.073L201.013,327.059L201.006,327.046L200.999,327.032L200.992,327.018L200.984,327.004L200.977,326.99L200.969,326.977L200.961,326.963L200.953,326.95L200.945,326.936L200.937,326.922L200.929,326.909L200.921,326.896L200.912,326.882L200.904,326.869L200.895,326.855L200.887,326.842L200.878,326.829L200.869,326.816L200.86,326.803L200.851,326.789L200.841,326.776L200.832,326.763L200.823,326.75L200.813,326.737L200.803,326.724L200.794,326.711L200.784,326.699L200.774,326.686L200.764,326.673L200.754,326.66L200.743,326.648L200.733,326.635L200.722,326.623L200.712,326.61L200.701,326.598L200.69,326.585L200.679,326.573L200.668,326.561L200.657,326.548L200.646,326.536L200.635,326.524L200.623,326.512L200.612,326.5L200.6,326.488L200.589,326.476L200.577,326.464L200.565,326.452L200.553,326.44L200.541,326.428L200.529,326.416L200.516,326.405L200.504,326.393L200.491,326.382L200.479,326.37L200.466,326.359L200.453,326.347L200.441,326.336L200.428,326.325L200.414,326.313L200.401,326.302L200.388,326.291L200.375,326.28L200.361,326.269L200.348,326.258L200.334,326.247L200.32,326.236L200.306,326.226L200.292,326.215L200.278,326.204L200.264,326.194L200.25,326.183L200.236,326.173L200.222,326.163L200.207,326.152L200.193,326.142L200.178,326.132L200.164,326.122L200.149,326.112L200.134,326.102L200.119,326.092L200.105,326.083L200.09,326.073L200.075,326.063L200.059,326.054L200.044,326.045L200.029,326.035L200.014,326.026L199.998,326.017L199.983,326.008L199.967,325.999L199.952,325.99L199.936,325.981L199.921,325.972L199.905,325.963L199.889,325.955L199.873,325.946L199.857,325.937L199.841,325.929L199.825,325.921L199.809,325.912L199.793,325.904L199.776,325.896L199.76,325.888L199.744,325.88L199.727,325.872L199.711,325.865L199.694,325.857L199.678,325.849L199.661,325.842L199.644,325.834L199.627,325.827L199.611,325.82L199.594,325.812L199.577,325.805L199.56,325.798L199.543,325.791L199.526,325.784L199.508,325.777L199.491,325.771L199.474,325.764L199.457,325.757L199.439,325.751L199.422,325.745L199.404,325.738L199.387,325.732L199.369,325.726L199.352,325.72L199.334,325.714L199.317,325.708L199.299,325.702L199.281,325.696L199.263,325.691L199.245,325.685L199.227,325.68L199.209,325.674L199.191,325.669L199.173,325.664L199.155,325.659L199.137,325.653L199.119,325.648L199.101,325.644L199.083,325.639L199.064,325.634L199.046,325.629L199.028,325.625L199.009,325.62L198.991,325.616L198.972,325.612L198.954,325.608L198.935,325.603L198.917,325.599L198.898,325.595L198.879,325.592L198.861,325.588L198.842,325.584L198.823,325.581L198.804,325.577L198.785,325.574L198.767,325.57L198.748,325.567L198.729,325.564L198.71,325.561L198.691,325.558L198.672,325.555L198.653,325.552L198.634,325.549L198.615,325.547L198.596,325.544L198.577,325.542L198.557,325.539L198.538,325.537L198.519,325.535L198.5,325.533L198.48,325.531L198.461,325.529L198.442,325.527L198.423,325.526L198.403,325.524L198.384,325.522L198.364,325.521L198.345,325.52L198.326,325.518L198.306,325.517L198.287,325.516L198.267,325.515L198.248,325.514L198.228,325.513L198.209,325.513L198.189,325.512L198.17,325.512L198.15,325.511L198.13,325.511L198.111,325.511L198.091,325.511L198.071,325.51L192.929,325.51Z" style="fill:rgb(42,47,53);"/>
        </g>
        <g transform="matrix(0.911111,0,0,0.8,35.9111,61.6)">
            <g transform="matrix(1.47541,0,0,0.357143,-98.377,241.929)">
                <rect x="188" y="297" width="61" height="28" style="fill:rgb(114,96,96);"/>
            </g>
            <g transform="matrix(1.47541,0,0,0.357143,-98.377,241.929)">
                <path d="M249,325L188,325L188,297L249,297L249,325ZM189.063,302L189.063,320L247.937,320L247.937,302L189.063,302Z" style="fill:rgb(42,47,53);"/>
            </g>
        </g>
        <g transform="matrix(1,0,0,1,16,0)">
            <g transform="matrix(1.47541,0,0,0.357143,-98.377,241.929)">
                <rect x="188" y="297" width="61" height="28" style="fill:rgb(145,125,125);"/>
            </g>
            <g transform="matrix(1.47541,0,0,0.357143,-98.377,241.929)">
                <path d="M249,325L188,325L188,297L249,297L249,325ZM188.968,301L188.968,321L248.032,321L248.032,301L188.968,301Z" style="fill:rgb(42,47,53);"/>
            </g>
        </g>
        <g transform="matrix(0.911111,0,0,0.8,17.9111,61.6)">
            <g transform="matrix(1.47541,0,0,0.357143,-98.377,241.929)">
                <rect x="188" y="297" width="61" height="28" style="fill:rgb(145,125,125);"/>
            </g>
            <g transform="matrix(1.47541,0,0,0.357143,-98.377,241.929)">
                <path d="M249,325L188,325L188,297L249,297L249,325ZM189.063,302L189.063,320L247.937,320L247.937,302L189.063,302Z" style="fill:rgb(42,47,53);"/>
            </g>
        </g>
        <g>
            <g transform="matrix(1.47541,0,0,0.357143,-98.377,241.929)">
                <rect x="188" y="297" width="61" height="28" style="fill:rgb(175,160,160);"/>
            </g>
            <g transform="matrix(1.47541,0,0,0.357143,-98.377,241.929)">
                <path d="M249,325L188,325L188,297L249,297L249,325ZM188.968,301L188.968,321L248.032,321L248.032,301L188.968,301Z" style="fill:rgb(42,47,53);"/>
            </g>
        </g>
        <g transform="matrix(1,0,0,1,4,0)">
            <path d="M249,347L249,344" style="fill:none;stroke:rgb(42,47,53);stroke-width:0.57px;"/>
        </g>
        <g transform="matrix(5.33333,0,0,6.90312,-814.667,-2003.61)">
            <path d="M201.5,327.952C201.5,327.25 201.139,326.576 200.496,326.079C199.853,325.583 198.981,325.304 198.071,325.304C196.459,325.304 194.541,325.304 192.929,325.304C192.019,325.304 191.147,325.583 190.504,326.079C189.861,326.576 189.5,327.25 189.5,327.952C189.5,332.06 189.5,339.5 189.5,339.5L201.5,339.5C201.5,339.5 201.5,332.06 201.5,327.952Z" style="fill:rgb(196,184,184);"/>
            <path d="M198.093,325.304L198.114,325.304L198.135,325.304L198.157,325.304L198.178,325.305L198.199,325.305L198.22,325.306L198.241,325.307L198.263,325.308L198.284,325.309L198.305,325.31L198.326,325.311L198.347,325.312L198.368,325.313L198.389,325.315L198.41,325.316L198.431,325.318L198.452,325.32L198.473,325.322L198.494,325.324L198.515,325.326L198.536,325.328L198.557,325.33L198.578,325.333L198.599,325.335L198.619,325.338L198.64,325.34L198.661,325.343L198.682,325.346L198.702,325.349L198.723,325.352L198.743,325.355L198.764,325.358L198.785,325.361L198.805,325.365L198.826,325.368L198.846,325.372L198.866,325.376L198.887,325.38L198.907,325.383L198.927,325.387L198.948,325.391L198.968,325.396L198.988,325.4L199.008,325.404L199.028,325.409L199.049,325.413L199.069,325.418L199.089,325.423L199.109,325.428L199.128,325.433L199.148,325.438L199.168,325.443L199.188,325.448L199.208,325.453L199.227,325.459L199.247,325.464L199.267,325.47L199.286,325.475L199.306,325.481L199.325,325.487L199.345,325.493L199.364,325.499L199.383,325.505L199.403,325.511L199.422,325.518L199.441,325.524L199.46,325.531L199.479,325.537L199.498,325.544L199.517,325.551L199.536,325.557L199.555,325.564L199.574,325.571L199.593,325.579L199.612,325.586L199.63,325.593L199.649,325.601L199.667,325.608L199.686,325.616L199.704,325.623L199.723,325.631L199.741,325.639L199.759,325.647L199.778,325.655L199.796,325.663L199.814,325.671L199.832,325.679L199.85,325.688L199.868,325.696L199.885,325.705L199.903,325.713L199.921,325.722L199.939,325.731L199.956,325.74L199.974,325.749L199.991,325.758L200.008,325.767L200.026,325.776L200.043,325.785L200.06,325.795L200.077,325.804L200.094,325.814L200.111,325.823L200.128,325.833L200.145,325.843L200.162,325.853L200.178,325.863L200.195,325.873L200.211,325.883L200.228,325.893L200.244,325.903L200.261,325.914L200.277,325.924L200.293,325.935L200.309,325.945L200.325,325.956L200.341,325.967L200.357,325.978L200.373,325.989L200.388,326L200.404,326.011L200.419,326.022L200.435,326.033L200.45,326.045L200.465,326.056L200.481,326.068L200.496,326.079L200.511,326.091L200.526,326.103L200.541,326.115L200.555,326.126L200.57,326.138L200.584,326.15L200.599,326.162L200.613,326.175L200.627,326.187L200.641,326.199L200.655,326.211L200.669,326.224L200.683,326.236L200.697,326.249L200.71,326.261L200.724,326.274L200.737,326.286L200.75,326.299L200.763,326.312L200.776,326.325L200.789,326.338L200.802,326.35L200.815,326.363L200.827,326.376L200.84,326.39L200.852,326.403L200.864,326.416L200.876,326.429L200.889,326.443L200.9,326.456L200.912,326.469L200.924,326.483L200.936,326.496L200.947,326.51L200.958,326.524L200.97,326.537L200.981,326.551L200.992,326.565L201.003,326.579L201.014,326.592L201.024,326.606L201.035,326.62L201.045,326.634L201.056,326.648L201.066,326.662L201.076,326.677L201.086,326.691L201.096,326.705L201.106,326.719L201.116,326.734L201.125,326.748L201.135,326.762L201.144,326.777L201.153,326.791L201.162,326.806L201.171,326.821L201.18,326.835L201.189,326.85L201.198,326.865L201.206,326.879L201.214,326.894L201.223,326.909L201.231,326.924L201.239,326.939L201.247,326.954L201.255,326.969L201.262,326.984L201.27,326.999L201.278,327.014L201.285,327.029L201.292,327.044L201.299,327.059L201.306,327.075L201.313,327.09L201.32,327.105L201.326,327.12L201.333,327.136L201.339,327.151L201.346,327.167L201.352,327.182L201.358,327.198L201.364,327.213L201.37,327.229L201.375,327.244L201.381,327.26L201.386,327.275L201.391,327.291L201.397,327.307L201.402,327.322L201.407,327.338L201.411,327.354L201.416,327.37L201.421,327.386L201.425,327.401L201.429,327.417L201.434,327.433L201.438,327.449L201.441,327.465L201.445,327.481L201.449,327.497L201.453,327.513L201.456,327.529L201.459,327.545L201.462,327.561L201.465,327.577L201.468,327.593L201.471,327.61L201.474,327.626L201.476,327.642L201.479,327.658L201.481,327.674L201.483,327.691L201.485,327.707L201.487,327.723L201.489,327.739L201.491,327.756L201.492,327.772L201.493,327.788L201.495,327.805L201.496,327.821L201.497,327.837L201.498,327.854L201.498,327.87L201.499,327.887L201.499,327.903L201.5,327.92L201.5,327.936L201.5,327.952L201.5,339.5L189.5,339.5L189.5,327.952L189.5,327.936L189.5,327.92L189.501,327.903L189.501,327.887L189.502,327.87L189.502,327.854L189.503,327.837L189.504,327.821L189.505,327.805L189.507,327.788L189.508,327.772L189.509,327.756L189.511,327.739L189.513,327.723L189.515,327.707L189.517,327.691L189.519,327.674L189.521,327.658L189.524,327.642L189.526,327.626L189.529,327.61L189.532,327.593L189.535,327.577L189.538,327.561L189.541,327.545L189.544,327.529L189.547,327.513L189.551,327.497L189.555,327.481L189.559,327.465L189.562,327.449L189.566,327.433L189.571,327.417L189.575,327.401L189.579,327.386L189.584,327.37L189.589,327.354L189.593,327.338L189.598,327.322L189.603,327.307L189.609,327.291L189.614,327.275L189.619,327.26L189.625,327.244L189.63,327.229L189.636,327.213L189.642,327.198L189.648,327.182L189.654,327.167L189.661,327.151L189.667,327.136L189.674,327.12L189.68,327.105L189.687,327.09L189.694,327.075L189.701,327.059L189.708,327.044L189.715,327.029L189.722,327.014L189.73,326.999L189.738,326.984L189.745,326.969L189.753,326.954L189.761,326.939L189.769,326.924L189.777,326.909L189.786,326.894L189.794,326.879L189.802,326.865L189.811,326.85L189.82,326.835L189.829,326.821L189.838,326.806L189.847,326.791L189.856,326.777L189.865,326.762L189.875,326.748L189.884,326.734L189.894,326.719L189.904,326.705L189.914,326.691L189.924,326.677L189.934,326.662L189.944,326.648L189.955,326.634L189.965,326.62L189.976,326.606L189.986,326.592L189.997,326.579L190.008,326.565L190.019,326.551L190.03,326.537L190.042,326.524L190.053,326.51L190.064,326.496L190.076,326.483L190.088,326.469L190.1,326.456L190.111,326.443L190.124,326.429L190.136,326.416L190.148,326.403L190.16,326.39L190.173,326.376L190.185,326.363L190.198,326.35L190.211,326.338L190.224,326.325L190.237,326.312L190.25,326.299L190.263,326.286L190.276,326.274L190.29,326.261L190.303,326.249L190.317,326.236L190.331,326.224L190.345,326.211L190.359,326.199L190.373,326.187L190.387,326.175L190.401,326.162L190.416,326.15L190.43,326.138L190.445,326.126L190.459,326.115L190.474,326.103L190.489,326.091L190.504,326.079L190.519,326.068L190.535,326.056L190.55,326.045L190.565,326.033L190.581,326.022L190.596,326.011L190.612,326L190.627,325.989L190.643,325.978L190.659,325.967L190.675,325.956L190.691,325.945L190.707,325.935L190.723,325.924L190.739,325.914L190.756,325.903L190.772,325.893L190.789,325.883L190.805,325.873L190.822,325.863L190.838,325.853L190.855,325.843L190.872,325.833L190.889,325.823L190.906,325.814L190.923,325.804L190.94,325.795L190.957,325.785L190.974,325.776L190.992,325.767L191.009,325.758L191.026,325.749L191.044,325.74L191.061,325.731L191.079,325.722L191.097,325.713L191.115,325.705L191.132,325.696L191.15,325.688L191.168,325.679L191.186,325.671L191.204,325.663L191.222,325.655L191.241,325.647L191.259,325.639L191.277,325.631L191.296,325.623L191.314,325.616L191.333,325.608L191.351,325.601L191.37,325.593L191.388,325.586L191.407,325.579L191.426,325.571L191.445,325.564L191.464,325.557L191.483,325.551L191.502,325.544L191.521,325.537L191.54,325.531L191.559,325.524L191.578,325.518L191.597,325.511L191.617,325.505L191.636,325.499L191.655,325.493L191.675,325.487L191.694,325.481L191.714,325.475L191.733,325.47L191.753,325.464L191.773,325.459L191.792,325.453L191.812,325.448L191.832,325.443L191.852,325.438L191.872,325.433L191.891,325.428L191.911,325.423L191.931,325.418L191.951,325.413L191.972,325.409L191.992,325.404L192.012,325.4L192.032,325.396L192.052,325.391L192.073,325.387L192.093,325.383L192.113,325.38L192.134,325.376L192.154,325.372L192.174,325.368L192.195,325.365L192.215,325.361L192.236,325.358L192.257,325.355L192.277,325.352L192.298,325.349L192.318,325.346L192.339,325.343L192.36,325.34L192.381,325.338L192.401,325.335L192.422,325.333L192.443,325.33L192.464,325.328L192.485,325.326L192.506,325.324L192.527,325.322L192.548,325.32L192.569,325.318L192.59,325.316L192.611,325.315L192.632,325.313L192.653,325.312L192.674,325.311L192.695,325.31L192.716,325.309L192.737,325.308L192.759,325.307L192.78,325.306L192.801,325.305L192.822,325.305L192.843,325.304L192.865,325.304L192.886,325.304L192.907,325.304L192.929,325.304L198.071,325.304L198.093,325.304ZM192.929,325.51L192.909,325.511L192.889,325.511L192.87,325.511L192.85,325.511L192.83,325.512L192.811,325.512L192.791,325.513L192.772,325.513L192.752,325.514L192.733,325.515L192.713,325.516L192.694,325.517L192.674,325.518L192.655,325.52L192.636,325.521L192.616,325.522L192.597,325.524L192.577,325.526L192.558,325.527L192.539,325.529L192.52,325.531L192.5,325.533L192.481,325.535L192.462,325.537L192.443,325.539L192.423,325.542L192.404,325.544L192.385,325.547L192.366,325.549L192.347,325.552L192.328,325.555L192.309,325.558L192.29,325.561L192.271,325.564L192.252,325.567L192.233,325.57L192.215,325.574L192.196,325.577L192.177,325.581L192.158,325.584L192.139,325.588L192.121,325.592L192.102,325.595L192.083,325.599L192.065,325.603L192.046,325.608L192.028,325.612L192.009,325.616L191.991,325.62L191.972,325.625L191.954,325.629L191.936,325.634L191.917,325.639L191.899,325.644L191.881,325.648L191.863,325.653L191.845,325.659L191.827,325.664L191.809,325.669L191.791,325.674L191.773,325.68L191.755,325.685L191.737,325.691L191.719,325.696L191.701,325.702L191.683,325.708L191.666,325.714L191.648,325.72L191.631,325.726L191.613,325.732L191.595,325.738L191.578,325.745L191.561,325.751L191.543,325.757L191.526,325.764L191.509,325.771L191.492,325.777L191.474,325.784L191.457,325.791L191.44,325.798L191.423,325.805L191.406,325.812L191.389,325.82L191.373,325.827L191.356,325.834L191.339,325.842L191.322,325.849L191.306,325.857L191.289,325.865L191.273,325.872L191.256,325.88L191.24,325.888L191.224,325.896L191.207,325.904L191.191,325.912L191.175,325.921L191.159,325.929L191.143,325.937L191.127,325.946L191.111,325.955L191.095,325.963L191.079,325.972L191.064,325.981L191.048,325.99L191.033,325.999L191.017,326.008L191.002,326.017L190.986,326.026L190.971,326.035L190.956,326.045L190.941,326.054L190.925,326.063L190.91,326.073L190.895,326.083L190.881,326.092L190.866,326.102L190.851,326.112L190.836,326.122L190.822,326.132L190.807,326.142L190.793,326.152L190.778,326.163L190.764,326.173L190.75,326.183L190.736,326.194L190.722,326.204L190.708,326.215L190.694,326.226L190.68,326.236L190.666,326.247L190.652,326.258L190.639,326.269L190.625,326.28L190.612,326.291L190.599,326.302L190.586,326.313L190.572,326.325L190.559,326.336L190.547,326.347L190.534,326.359L190.521,326.37L190.509,326.382L190.496,326.393L190.484,326.405L190.471,326.416L190.459,326.428L190.447,326.44L190.435,326.452L190.423,326.464L190.411,326.476L190.4,326.488L190.388,326.5L190.377,326.512L190.365,326.524L190.354,326.536L190.343,326.548L190.332,326.56L190.321,326.573L190.31,326.585L190.299,326.598L190.288,326.61L190.278,326.623L190.267,326.635L190.257,326.648L190.246,326.66L190.236,326.673L190.226,326.686L190.216,326.699L190.206,326.711L190.197,326.724L190.187,326.737L190.177,326.75L190.168,326.763L190.159,326.776L190.149,326.789L190.14,326.803L190.131,326.816L190.122,326.829L190.113,326.842L190.105,326.855L190.096,326.869L190.088,326.882L190.079,326.896L190.071,326.909L190.063,326.922L190.055,326.936L190.047,326.95L190.039,326.963L190.031,326.977L190.023,326.99L190.016,327.004L190.008,327.018L190.001,327.032L189.994,327.046L189.987,327.059L189.98,327.073L189.973,327.087L189.966,327.101L189.959,327.115L189.953,327.129L189.946,327.143L189.94,327.157L189.934,327.171L189.928,327.185L189.922,327.2L189.916,327.214L189.91,327.228L189.904,327.242L189.899,327.256L189.893,327.271L189.888,327.285L189.883,327.299L189.878,327.314L189.873,327.328L189.868,327.343L189.863,327.357L189.859,327.372L189.854,327.386L189.85,327.401L189.845,327.415L189.841,327.43L189.837,327.445L189.833,327.459L189.829,327.474L189.825,327.488L189.822,327.503L189.818,327.518L189.815,327.533L189.812,327.547L189.808,327.562L189.805,327.577L189.802,327.592L189.8,327.607L189.797,327.622L189.794,327.636L189.792,327.651L189.79,327.666L189.787,327.681L189.785,327.696L189.783,327.711L189.781,327.726L189.78,327.741L189.778,327.756L189.777,327.771L189.775,327.786L189.774,327.801L189.773,327.816L189.772,327.831L189.771,327.846L189.77,327.862L189.769,327.877L189.769,327.892L189.768,327.907L189.768,327.922L189.768,327.937L189.768,327.953L189.768,339.293L201.232,339.293L201.232,327.953L201.232,327.937L201.232,327.922L201.232,327.907L201.231,327.892L201.231,327.877L201.23,327.862L201.229,327.846L201.228,327.831L201.227,327.816L201.226,327.801L201.225,327.786L201.223,327.771L201.222,327.756L201.22,327.741L201.219,327.726L201.217,327.711L201.215,327.696L201.213,327.681L201.21,327.666L201.208,327.651L201.206,327.636L201.203,327.622L201.2,327.607L201.198,327.592L201.195,327.577L201.192,327.562L201.188,327.547L201.185,327.533L201.182,327.518L201.178,327.503L201.175,327.488L201.171,327.474L201.167,327.459L201.163,327.445L201.159,327.43L201.155,327.415L201.15,327.401L201.146,327.386L201.141,327.372L201.137,327.357L201.132,327.343L201.127,327.328L201.122,327.314L201.117,327.299L201.112,327.285L201.107,327.271L201.101,327.257L201.096,327.242L201.09,327.228L201.084,327.214L201.078,327.2L201.072,327.185L201.066,327.171L201.06,327.157L201.054,327.143L201.047,327.129L201.041,327.115L201.034,327.101L201.027,327.087L201.02,327.073L201.013,327.059L201.006,327.046L200.999,327.032L200.992,327.018L200.984,327.004L200.977,326.99L200.969,326.977L200.961,326.963L200.953,326.95L200.945,326.936L200.937,326.923L200.929,326.909L200.921,326.896L200.912,326.882L200.904,326.869L200.895,326.855L200.887,326.842L200.878,326.829L200.869,326.816L200.86,326.803L200.851,326.789L200.841,326.776L200.832,326.763L200.823,326.75L200.813,326.737L200.803,326.724L200.794,326.711L200.784,326.699L200.774,326.686L200.764,326.673L200.754,326.66L200.743,326.648L200.733,326.635L200.722,326.623L200.712,326.61L200.701,326.598L200.69,326.585L200.679,326.573L200.668,326.56L200.657,326.548L200.646,326.536L200.635,326.524L200.623,326.512L200.612,326.5L200.6,326.488L200.589,326.476L200.577,326.464L200.565,326.452L200.553,326.44L200.541,326.428L200.529,326.416L200.516,326.405L200.504,326.393L200.491,326.382L200.479,326.37L200.466,326.359L200.453,326.347L200.441,326.336L200.428,326.325L200.414,326.313L200.401,326.302L200.388,326.291L200.375,326.28L200.361,326.269L200.348,326.258L200.334,326.247L200.32,326.236L200.306,326.226L200.292,326.215L200.278,326.204L200.264,326.194L200.25,326.183L200.236,326.173L200.222,326.163L200.207,326.152L200.193,326.142L200.178,326.132L200.164,326.122L200.149,326.112L200.134,326.102L200.119,326.092L200.105,326.083L200.09,326.073L200.075,326.063L200.059,326.054L200.044,326.045L200.029,326.035L200.014,326.026L199.998,326.017L199.983,326.008L199.967,325.999L199.952,325.99L199.936,325.981L199.921,325.972L199.905,325.963L199.889,325.955L199.873,325.946L199.857,325.937L199.841,325.929L199.825,325.921L199.809,325.912L199.793,325.904L199.776,325.896L199.76,325.888L199.744,325.88L199.727,325.872L199.711,325.865L199.694,325.857L199.678,325.849L199.661,325.842L199.644,325.834L199.627,325.827L199.611,325.82L199.594,325.812L199.577,325.805L199.56,325.798L199.543,325.791L199.526,325.784L199.508,325.777L199.491,325.771L199.474,325.764L199.457,325.757L199.439,325.751L199.422,325.745L199.405,325.738L199.387,325.732L199.369,325.726L199.352,325.72L199.334,325.714L199.317,325.708L199.299,325.702L199.281,325.696L199.263,325.691L199.245,325.685L199.227,325.68L199.209,325.674L199.191,325.669L199.173,325.664L199.155,325.659L199.137,325.653L199.119,325.648L199.101,325.644L199.083,325.639L199.064,325.634L199.046,325.629L199.028,325.625L199.009,325.62L198.991,325.616L198.972,325.612L198.954,325.608L198.935,325.603L198.917,325.599L198.898,325.595L198.879,325.592L198.861,325.588L198.842,325.584L198.823,325.581L198.804,325.577L198.785,325.574L198.767,325.57L198.748,325.567L198.729,325.564L198.71,325.561L198.691,325.558L198.672,325.555L198.653,325.552L198.634,325.549L198.615,325.547L198.596,325.544L198.577,325.542L198.557,325.539L198.538,325.537L198.519,325.535L198.5,325.533L198.48,325.531L198.461,325.529L198.442,325.527L198.423,325.526L198.403,325.524L198.384,325.522L198.364,325.521L198.345,325.52L198.326,325.518L198.306,325.517L198.287,325.516L198.267,325.515L198.248,325.514L198.228,325.513L198.209,325.513L198.189,325.512L198.17,325.512L198.15,325.511L198.13,325.511L198.111,325.511L198.091,325.511L198.071,325.51L192.929,325.51Z" style="fill:rgb(42,47,53);"/>
        </g>
        <g transform="matrix(1,0,0,1,11,0)">
            <path d="M198,265L198,270" style="fill:none;stroke:rgb(42,47,53);stroke-width:0.57px;"/>
        </g>
        <g transform="matrix(1,0,0,1,11,0)">
            <path d="M234,328L234,333" style="fill:none;stroke:rgb(42,47,53);stroke-width:0.57px;"/>
        </g>
        <g transform="matrix(1,0,0,1,13,3)">
            <g transform="matrix(1,0,0,1,35,-0.5)">
                <path d="M199,306L195,309" style="fill:none;stroke:rgb(42,47,53);stroke-width:1.14px;"/>
            </g>
            <g transform="matrix(-1,0,0,1,432,-0.5)">
                <path d="M199,306L195,309" style="fill:none;stroke:rgb(42,47,53);stroke-width:1.14px;"/>
            </g>
            <g transform="matrix(1,0,0,1,33,1.5)">
                <path d="M200,292C200,292 206,296.689 206,300C206,303.311 203.311,306 200,306C196.689,306 194,303.311 194,300C194,296.689 200,292 200,292Z" style="fill:rgb(234,211,211);"/>
                <path d="M200.067,292.053L200.148,292.119L200.258,292.208L200.394,292.32L200.554,292.455L200.642,292.53L200.736,292.61L200.834,292.695L200.938,292.784L201.045,292.879L201.157,292.978L201.272,293.081L201.392,293.188L201.514,293.3L201.64,293.416L201.768,293.535L201.898,293.658L202.031,293.785L202.166,293.915L202.303,294.048L202.44,294.184L202.579,294.324L202.719,294.466L202.859,294.611L203,294.758L203.07,294.833L203.141,294.908L203.211,294.984L203.281,295.06L203.351,295.137L203.421,295.215L203.49,295.292L203.56,295.371L203.629,295.45L203.697,295.529L203.766,295.609L203.834,295.689L203.901,295.77L203.969,295.851L204.035,295.932L204.102,296.014L204.167,296.095L204.232,296.178L204.297,296.26L204.36,296.343L204.424,296.426L204.486,296.51L204.548,296.593L204.608,296.677L204.668,296.761L204.728,296.845L204.786,296.93L204.843,297.014L204.9,297.099L204.955,297.183L205.009,297.268L205.063,297.353L205.115,297.438L205.166,297.523L205.216,297.608L205.264,297.693L205.312,297.778L205.358,297.862L205.403,297.947L205.446,298.032L205.488,298.117L205.529,298.201L205.568,298.286L205.606,298.37L205.643,298.454L205.677,298.538L205.711,298.622L205.742,298.705L205.772,298.789L205.8,298.872L205.827,298.955L205.852,299.037L205.875,299.12L205.896,299.202L205.906,299.242L205.915,299.283L205.924,299.324L205.933,299.364L205.941,299.405L205.948,299.445L205.955,299.486L205.962,299.526L205.968,299.566L205.973,299.606L205.978,299.646L205.983,299.686L205.987,299.725L205.99,299.765L205.993,299.804L205.996,299.844L205.998,299.883L205.999,299.922L206,299.961L206,300L206,300.077L205.998,300.155L205.996,300.232L205.992,300.309L205.988,300.385L205.982,300.461L205.976,300.537L205.969,300.613L205.961,300.689L205.952,300.764L205.942,300.839L205.931,300.913L205.919,300.988L205.906,301.062L205.893,301.135L205.878,301.209L205.863,301.282L205.846,301.354L205.829,301.427L205.811,301.499L205.792,301.57L205.772,301.642L205.752,301.713L205.73,301.783L205.708,301.854L205.685,301.924L205.661,301.993L205.636,302.062L205.61,302.131L205.584,302.199L205.556,302.267L205.528,302.335L205.499,302.402L205.47,302.468L205.439,302.534L205.408,302.6L205.376,302.666L205.343,302.731L205.31,302.795L205.275,302.859L205.24,302.922L205.205,302.986L205.168,303.048L205.131,303.11L205.093,303.172L205.054,303.233L205.015,303.294L204.975,303.354L204.934,303.413L204.892,303.472L204.85,303.531L204.807,303.589L204.764,303.646L204.72,303.703L204.675,303.76L204.629,303.816L204.583,303.871L204.536,303.926L204.489,303.98L204.441,304.033L204.392,304.086L204.342,304.139L204.292,304.191L204.242,304.242L204.191,304.292L204.139,304.342L204.086,304.392L204.033,304.441L203.98,304.489L203.926,304.536L203.871,304.583L203.816,304.629L203.76,304.675L203.703,304.72L203.646,304.764L203.589,304.807L203.531,304.85L203.472,304.892L203.413,304.934L203.354,304.975L203.294,305.015L203.233,305.054L203.172,305.093L203.11,305.131L203.048,305.168L202.986,305.205L202.922,305.24L202.859,305.275L202.795,305.31L202.731,305.343L202.666,305.376L202.6,305.408L202.534,305.439L202.468,305.47L202.402,305.499L202.335,305.528L202.267,305.556L202.199,305.584L202.131,305.61L202.062,305.636L201.993,305.661L201.924,305.685L201.854,305.708L201.783,305.73L201.713,305.752L201.642,305.772L201.57,305.792L201.499,305.811L201.427,305.829L201.354,305.846L201.282,305.863L201.209,305.878L201.135,305.893L201.062,305.906L200.988,305.919L200.913,305.931L200.839,305.942L200.764,305.952L200.689,305.961L200.613,305.969L200.537,305.976L200.461,305.982L200.385,305.988L200.309,305.992L200.232,305.996L200.155,305.998L200.077,306L200,306L199.923,306L199.845,305.998L199.768,305.996L199.691,305.992L199.615,305.988L199.539,305.982L199.463,305.976L199.387,305.969L199.311,305.961L199.236,305.952L199.161,305.942L199.087,305.931L199.012,305.919L198.938,305.906L198.865,305.893L198.791,305.878L198.718,305.863L198.646,305.846L198.573,305.829L198.501,305.811L198.43,305.792L198.358,305.772L198.287,305.752L198.217,305.73L198.146,305.708L198.076,305.685L198.007,305.661L197.938,305.636L197.869,305.61L197.801,305.584L197.733,305.556L197.665,305.528L197.598,305.499L197.532,305.47L197.466,305.439L197.4,305.408L197.334,305.376L197.269,305.343L197.205,305.31L197.141,305.275L197.078,305.24L197.014,305.205L196.952,305.168L196.89,305.131L196.828,305.093L196.767,305.054L196.706,305.015L196.646,304.975L196.587,304.934L196.528,304.892L196.469,304.85L196.411,304.807L196.354,304.764L196.297,304.72L196.24,304.675L196.184,304.629L196.129,304.583L196.074,304.536L196.02,304.489L195.967,304.441L195.914,304.392L195.861,304.342L195.809,304.292L195.758,304.242L195.708,304.191L195.658,304.139L195.608,304.086L195.559,304.033L195.511,303.98L195.464,303.926L195.417,303.871L195.371,303.816L195.325,303.76L195.28,303.703L195.236,303.646L195.193,303.589L195.15,303.531L195.108,303.472L195.066,303.413L195.025,303.354L194.985,303.294L194.946,303.233L194.907,303.172L194.869,303.11L194.832,303.048L194.795,302.986L194.76,302.922L194.725,302.859L194.69,302.795L194.657,302.731L194.624,302.666L194.592,302.6L194.561,302.534L194.53,302.468L194.501,302.402L194.472,302.335L194.444,302.267L194.416,302.199L194.39,302.131L194.364,302.062L194.339,301.993L194.315,301.924L194.292,301.854L194.27,301.783L194.248,301.713L194.228,301.642L194.208,301.57L194.189,301.499L194.171,301.427L194.154,301.354L194.137,301.282L194.122,301.209L194.107,301.135L194.094,301.062L194.081,300.988L194.069,300.913L194.058,300.839L194.048,300.764L194.039,300.689L194.031,300.613L194.024,300.537L194.018,300.461L194.012,300.385L194.008,300.309L194.004,300.232L194.002,300.155L194,300.077L194,300L194,299.961L194.001,299.922L194.002,299.883L194.004,299.844L194.007,299.804L194.01,299.765L194.013,299.725L194.017,299.686L194.022,299.646L194.027,299.606L194.032,299.566L194.038,299.526L194.045,299.486L194.052,299.445L194.059,299.405L194.067,299.364L194.076,299.324L194.085,299.283L194.094,299.242L194.104,299.202L194.125,299.12L194.148,299.037L194.173,298.955L194.2,298.872L194.228,298.789L194.258,298.705L194.289,298.622L194.323,298.538L194.357,298.454L194.394,298.37L194.432,298.286L194.471,298.201L194.512,298.117L194.554,298.032L194.597,297.947L194.642,297.862L194.688,297.778L194.736,297.693L194.784,297.608L194.834,297.523L194.885,297.438L194.938,297.353L194.991,297.268L195.045,297.183L195.1,297.099L195.157,297.014L195.214,296.93L195.272,296.845L195.332,296.761L195.392,296.677L195.452,296.593L195.514,296.51L195.576,296.426L195.64,296.343L195.703,296.26L195.768,296.178L195.833,296.095L195.898,296.014L195.965,295.932L196.031,295.851L196.099,295.77L196.166,295.689L196.234,295.609L196.303,295.529L196.371,295.45L196.44,295.371L196.51,295.292L196.579,295.215L196.649,295.137L196.719,295.06L196.789,294.984L196.859,294.908L196.93,294.833L197,294.758L197.141,294.611L197.281,294.466L197.421,294.324L197.56,294.184L197.697,294.048L197.834,293.915L197.969,293.785L198.102,293.658L198.232,293.535L198.36,293.416L198.486,293.3L198.608,293.188L198.728,293.081L198.843,292.978L198.955,292.879L199.063,292.784L199.166,292.695L199.264,292.61L199.358,292.53L199.446,292.455L199.606,292.32L199.742,292.208L199.852,292.119L199.933,292.053L200,292L200.067,292.053ZM199.914,293.558L199.814,293.645L199.71,293.736L199.603,293.832L199.491,293.931L199.376,294.035L199.258,294.143L199.137,294.254L199.013,294.369L198.887,294.488L198.759,294.61L198.63,294.735L198.499,294.863L198.366,294.994L198.233,295.128L198.099,295.264L197.965,295.403L197.83,295.544L197.763,295.615L197.696,295.686L197.629,295.759L197.563,295.831L197.496,295.904L197.43,295.978L197.364,296.052L197.298,296.126L197.233,296.201L197.168,296.275L197.104,296.351L197.04,296.426L196.976,296.502L196.913,296.578L196.85,296.654L196.788,296.73L196.727,296.807L196.667,296.884L196.607,296.96L196.548,297.037L196.489,297.114L196.432,297.191L196.375,297.268L196.319,297.345L196.264,297.422L196.21,297.499L196.157,297.575L196.105,297.652L196.054,297.728L196.004,297.804L195.956,297.88L195.908,297.956L195.862,298.031L195.817,298.107L195.773,298.181L195.73,298.255L195.689,298.329L195.649,298.403L195.611,298.476L195.574,298.548L195.538,298.619L195.504,298.69L195.471,298.761L195.44,298.83L195.41,298.899L195.382,298.967L195.355,299.034L195.33,299.101L195.307,299.166L195.285,299.23L195.265,299.293L195.246,299.356L195.229,299.416L195.213,299.479L195.206,299.506L195.2,299.535L195.193,299.564L195.187,299.592L195.182,299.62L195.177,299.648L195.172,299.675L195.167,299.703L195.163,299.729L195.16,299.756L195.157,299.782L195.154,299.807L195.151,299.833L195.149,299.858L195.147,299.882L195.146,299.907L195.144,299.931L195.144,299.954L195.143,299.977L195.143,300L195.143,300.063L195.144,300.126L195.146,300.188L195.149,300.251L195.153,300.313L195.157,300.375L195.162,300.436L195.168,300.497L195.175,300.559L195.182,300.619L195.19,300.68L195.199,300.74L195.209,300.8L195.219,300.86L195.23,300.92L195.242,300.979L195.254,301.038L195.267,301.097L195.281,301.156L195.296,301.214L195.311,301.272L195.327,301.329L195.344,301.387L195.361,301.444L195.379,301.5L195.398,301.557L195.417,301.613L195.437,301.669L195.458,301.724L195.48,301.78L195.502,301.834L195.524,301.889L195.548,301.943L195.572,301.997L195.596,302.051L195.622,302.104L195.647,302.157L195.674,302.209L195.701,302.261L195.729,302.313L195.757,302.365L195.786,302.416L195.816,302.466L195.846,302.517L195.877,302.567L195.908,302.616L195.94,302.665L195.972,302.714L196.005,302.762L196.039,302.81L196.073,302.857L196.108,302.904L196.143,302.951L196.179,302.997L196.215,303.043L196.252,303.088L196.29,303.133L196.328,303.177L196.366,303.221L196.405,303.265L196.445,303.308L196.485,303.35L196.525,303.392L196.566,303.434L196.608,303.475L196.65,303.515L196.692,303.555L196.735,303.595L196.779,303.634L196.823,303.672L196.867,303.71L196.912,303.748L196.957,303.785L197.003,303.821L197.049,303.857L197.096,303.892L197.143,303.927L197.19,303.961L197.238,303.995L197.286,304.028L197.335,304.06L197.384,304.092L197.434,304.124L197.483,304.154L197.534,304.184L197.584,304.214L197.635,304.243L197.687,304.271L197.738,304.299L197.791,304.326L197.843,304.353L197.896,304.379L197.949,304.404L198.003,304.428L198.057,304.452L198.111,304.476L198.166,304.498L198.22,304.52L198.276,304.542L198.331,304.563L198.387,304.583L198.443,304.602L198.5,304.621L198.556,304.639L198.613,304.656L198.671,304.673L198.728,304.689L198.786,304.704L198.845,304.719L198.903,304.733L198.962,304.746L199.021,304.758L199.08,304.77L199.14,304.781L199.199,304.791L199.26,304.801L199.32,304.81L199.381,304.818L199.442,304.825L199.503,304.832L199.564,304.838L199.625,304.843L199.687,304.847L199.749,304.851L199.812,304.854L199.874,304.856L199.937,304.857L200,304.857L200.063,304.857L200.126,304.856L200.188,304.854L200.251,304.851L200.313,304.847L200.375,304.843L200.436,304.838L200.497,304.832L200.558,304.825L200.619,304.818L200.68,304.81L200.74,304.801L200.801,304.791L200.86,304.781L200.92,304.77L200.979,304.758L201.038,304.746L201.097,304.733L201.155,304.719L201.214,304.704L201.272,304.689L201.329,304.673L201.387,304.656L201.444,304.639L201.5,304.621L201.557,304.602L201.613,304.583L201.669,304.563L201.724,304.542L201.78,304.52L201.834,304.498L201.889,304.476L201.943,304.452L201.997,304.428L202.051,304.404L202.104,304.379L202.157,304.353L202.209,304.326L202.262,304.299L202.313,304.271L202.365,304.243L202.416,304.214L202.466,304.184L202.517,304.154L202.566,304.124L202.616,304.092L202.665,304.06L202.714,304.028L202.762,303.995L202.81,303.961L202.857,303.927L202.904,303.892L202.951,303.857L202.997,303.821L203.043,303.785L203.088,303.748L203.133,303.71L203.177,303.672L203.221,303.634L203.265,303.595L203.308,303.555L203.35,303.515L203.392,303.475L203.434,303.434L203.475,303.392L203.515,303.35L203.555,303.308L203.595,303.265L203.634,303.221L203.672,303.177L203.71,303.133L203.748,303.088L203.785,303.043L203.821,302.997L203.857,302.951L203.892,302.904L203.927,302.857L203.961,302.81L203.995,302.762L204.028,302.714L204.06,302.665L204.092,302.616L204.123,302.567L204.154,302.517L204.184,302.466L204.214,302.416L204.243,302.365L204.271,302.313L204.299,302.261L204.326,302.209L204.353,302.157L204.378,302.104L204.404,302.051L204.428,301.997L204.452,301.943L204.476,301.889L204.498,301.834L204.52,301.78L204.542,301.724L204.563,301.669L204.583,301.613L204.602,301.557L204.621,301.5L204.639,301.444L204.656,301.387L204.673,301.329L204.689,301.272L204.704,301.214L204.719,301.156L204.733,301.097L204.746,301.038L204.758,300.979L204.77,300.92L204.781,300.86L204.791,300.8L204.801,300.74L204.81,300.68L204.818,300.619L204.825,300.559L204.832,300.497L204.838,300.436L204.843,300.375L204.847,300.313L204.851,300.251L204.854,300.188L204.856,300.126L204.857,300.063L204.857,300L204.857,299.977L204.856,299.954L204.856,299.93L204.854,299.907L204.853,299.882L204.851,299.858L204.849,299.833L204.846,299.807L204.843,299.782L204.84,299.756L204.837,299.729L204.833,299.702L204.828,299.675L204.823,299.648L204.818,299.62L204.813,299.592L204.807,299.564L204.8,299.535L204.794,299.506L204.787,299.479L204.771,299.416L204.754,299.356L204.735,299.293L204.715,299.23L204.693,299.166L204.67,299.101L204.645,299.034L204.618,298.967L204.59,298.899L204.56,298.83L204.529,298.761L204.496,298.69L204.462,298.619L204.426,298.548L204.389,298.476L204.351,298.403L204.311,298.329L204.27,298.255L204.227,298.181L204.183,298.107L204.138,298.031L204.092,297.956L204.044,297.88L203.996,297.804L203.946,297.728L203.895,297.652L203.843,297.575L203.79,297.499L203.736,297.422L203.681,297.345L203.625,297.268L203.568,297.191L203.511,297.114L203.452,297.037L203.393,296.96L203.333,296.884L203.273,296.807L203.212,296.73L203.15,296.654L203.087,296.578L203.024,296.502L202.96,296.426L202.896,296.351L202.832,296.275L202.767,296.201L202.702,296.126L202.636,296.052L202.57,295.978L202.504,295.904L202.437,295.831L202.371,295.759L202.304,295.686L202.237,295.615L202.17,295.544L202.035,295.403L201.901,295.264L201.767,295.128L201.634,294.994L201.501,294.863L201.37,294.735L201.241,294.61L201.113,294.488L200.987,294.369L200.863,294.254L200.742,294.143L200.624,294.035L200.509,293.931L200.397,293.832L200.29,293.736L200.186,293.645L200.086,293.558L200,293.484L199.914,293.558Z" style="fill:rgb(42,47,53);"/>
            </g>
            <g transform="matrix(1.66129,0,0,1.22222,-100.598,-65.0556)">
                <path d="M200.829,295L200.852,295.001L200.876,295.003L200.899,295.006L200.922,295.009L200.945,295.013L200.968,295.018L200.99,295.023L201.013,295.029L201.036,295.036L201.058,295.044L201.081,295.052L201.103,295.061L201.125,295.07L201.147,295.081L201.17,295.091L201.192,295.103L201.213,295.115L201.235,295.128L201.257,295.142L201.278,295.156L201.3,295.171L201.321,295.186L201.343,295.202L201.364,295.219L201.385,295.237L201.406,295.255L201.426,295.273L201.447,295.292L201.468,295.312L201.488,295.333L201.508,295.354L201.529,295.376L201.549,295.398L201.569,295.421L201.588,295.444L201.608,295.468L201.628,295.493L201.647,295.518L201.666,295.543L201.685,295.57L201.704,295.597L201.723,295.624L201.742,295.652L201.76,295.68L201.779,295.709L201.797,295.739L201.815,295.769L201.833,295.8L201.851,295.831L201.869,295.862L201.886,295.894L201.903,295.927L201.92,295.96L201.937,295.994L201.954,296.028L201.971,296.063L201.987,296.098L202.004,296.134L202.02,296.17L202.036,296.206L202.051,296.243L202.067,296.281L202.082,296.319L202.098,296.357L202.113,296.396L202.128,296.435L202.142,296.475L202.157,296.515L202.171,296.556L202.185,296.597L202.199,296.638L202.213,296.68L202.226,296.722L202.24,296.765L202.253,296.808L202.266,296.852L202.278,296.896L202.291,296.94L202.303,296.985L202.315,297.03L202.327,297.075L202.339,297.121L202.35,297.167L202.361,297.214L202.372,297.261L202.383,297.308L202.394,297.356L202.404,297.404L202.414,297.452L202.424,297.501L202.433,297.55L202.443,297.599L202.452,297.649L202.461,297.699L202.47,297.749L202.478,297.8L202.486,297.851L202.494,297.902L202.502,297.953L202.509,298.005L202.517,298.057L202.524,298.11L202.53,298.162L202.537,298.215L202.543,298.269L202.549,298.322L202.555,298.376L202.56,298.43L202.565,298.484L202.57,298.539L202.575,298.594L202.579,298.649L202.583,298.704L202.587,298.759L202.591,298.815L202.594,298.871L202.597,298.927L202.6,298.984L202.602,299.04L202.604,299.097L202.606,299.154L202.608,299.211L202.609,299.269L202.61,299.326L202.611,299.384L202.611,299.442L202.612,299.5L202.611,299.558L202.611,299.616L202.61,299.674L202.609,299.731L202.608,299.789L202.606,299.846L202.604,299.903L202.602,299.96L202.6,300.016L202.597,300.073L202.594,300.129L202.591,300.185L202.587,300.241L202.583,300.296L202.579,300.351L202.575,300.406L202.57,300.461L202.565,300.516L202.56,300.57L202.555,300.624L202.549,300.678L202.543,300.731L202.537,300.785L202.53,300.838L202.524,300.89L202.517,300.943L202.509,300.995L202.502,301.047L202.494,301.098L202.486,301.149L202.478,301.2L202.47,301.251L202.461,301.301L202.452,301.351L202.443,301.401L202.433,301.45L202.424,301.499L202.414,301.548L202.404,301.596L202.394,301.644L202.383,301.692L202.372,301.739L202.361,301.786L202.35,301.833L202.339,301.879L202.327,301.925L202.315,301.97L202.303,302.015L202.291,302.06L202.278,302.104L202.266,302.148L202.253,302.192L202.24,302.235L202.226,302.278L202.213,302.32L202.199,302.362L202.185,302.403L202.171,302.444L202.157,302.485L202.142,302.525L202.128,302.565L202.113,302.604L202.098,302.643L202.082,302.681L202.067,302.719L202.051,302.757L202.036,302.794L202.02,302.83L202.004,302.866L201.987,302.902L201.971,302.937L201.954,302.972L201.937,303.006L201.92,303.04L201.903,303.073L201.886,303.106L201.869,303.138L201.851,303.169L201.833,303.2L201.815,303.231L201.797,303.261L201.779,303.291L201.76,303.32L201.742,303.348L201.723,303.376L201.704,303.403L201.685,303.43L201.666,303.457L201.647,303.482L201.628,303.507L201.608,303.532L201.588,303.556L201.569,303.579L201.549,303.602L201.529,303.624L201.508,303.646L201.488,303.667L201.468,303.688L201.447,303.708L201.426,303.727L201.406,303.745L201.385,303.763L201.364,303.781L201.343,303.798L201.321,303.814L201.3,303.829L201.278,303.844L201.257,303.858L201.235,303.872L201.213,303.885L201.192,303.897L201.17,303.909L201.147,303.919L201.125,303.93L201.103,303.939L201.081,303.948L201.058,303.956L201.036,303.964L201.013,303.971L200.99,303.977L200.968,303.982L200.945,303.987L200.922,303.991L200.899,303.994L200.876,303.997L200.852,303.999L200.829,304L200.806,304L200.782,304L200.759,303.999L200.736,303.997L200.713,303.994L200.69,303.991L200.667,303.987L200.644,303.982L200.621,303.977L200.599,303.971L200.576,303.964L200.553,303.956L200.531,303.948L200.509,303.939L200.486,303.93L200.464,303.919L200.442,303.909L200.42,303.897L200.398,303.885L200.376,303.872L200.355,303.858L200.333,303.844L200.312,303.829L200.29,303.814L200.269,303.798L200.248,303.781L200.227,303.763L200.206,303.745L200.185,303.727L200.165,303.708L200.144,303.688L200.124,303.667L200.103,303.646L200.083,303.624L200.063,303.602L200.043,303.579L200.023,303.556L200.004,303.532L199.984,303.507L199.965,303.482L199.945,303.457L199.926,303.43L199.907,303.403L199.888,303.376L199.87,303.348L199.851,303.32L199.833,303.291L199.815,303.261L199.796,303.231L199.779,303.2L199.761,303.169L199.743,303.138L199.726,303.106L199.708,303.073L199.691,303.04L199.674,303.006L199.657,302.972L199.641,302.937L199.624,302.902L199.608,302.866L199.592,302.83L199.576,302.794L199.56,302.757L199.545,302.719L199.529,302.681L199.514,302.643L199.499,302.604L199.484,302.565L199.469,302.525L199.455,302.485L199.441,302.444L199.426,302.403L199.413,302.362L199.399,302.32L199.385,302.278L199.372,302.235L199.359,302.192L199.346,302.148L199.333,302.104L199.321,302.06L199.309,302.015L199.297,301.97L199.285,301.925L199.273,301.879L199.262,301.833L199.25,301.786L199.239,301.739L199.229,301.692L199.218,301.644L199.208,301.596L199.198,301.548L199.188,301.499L199.178,301.45L199.169,301.401L199.16,301.351L199.151,301.301L199.142,301.251L199.134,301.2L199.125,301.149L199.117,301.098L199.11,301.047L199.102,300.995L199.095,300.943L199.088,300.89L199.081,300.838L199.075,300.785L199.069,300.731L199.063,300.678L199.057,300.624L199.051,300.57L199.046,300.516L199.041,300.461L199.037,300.406L199.032,300.351L199.028,300.296L199.024,300.241L199.021,300.185L199.018,300.129L199.015,300.073L199.012,300.016L199.009,299.96L199.007,299.903L199.005,299.846L199.004,299.789L199.002,299.731L199.001,299.674L199.001,299.616L199,299.558L199,299.5L199,299.442L199.001,299.384L199.001,299.326L199.002,299.269L199.004,299.211L199.005,299.154L199.007,299.097L199.009,299.04L199.012,298.984L199.015,298.927L199.018,298.871L199.021,298.815L199.024,298.759L199.028,298.704L199.032,298.649L199.037,298.594L199.041,298.539L199.046,298.484L199.051,298.43L199.057,298.376L199.063,298.322L199.069,298.269L199.075,298.215L199.081,298.162L199.088,298.11L199.095,298.057L199.102,298.005L199.11,297.953L199.117,297.902L199.125,297.851L199.134,297.8L199.142,297.749L199.151,297.699L199.16,297.649L199.169,297.599L199.178,297.55L199.188,297.501L199.198,297.452L199.208,297.404L199.218,297.356L199.229,297.308L199.239,297.261L199.25,297.214L199.262,297.167L199.273,297.121L199.285,297.075L199.297,297.03L199.309,296.985L199.321,296.94L199.333,296.896L199.346,296.852L199.359,296.808L199.372,296.765L199.385,296.722L199.399,296.68L199.413,296.638L199.426,296.597L199.441,296.556L199.455,296.515L199.469,296.475L199.484,296.435L199.499,296.396L199.514,296.357L199.529,296.319L199.545,296.281L199.56,296.243L199.576,296.206L199.592,296.17L199.608,296.134L199.624,296.098L199.641,296.063L199.657,296.028L199.674,295.994L199.691,295.96L199.708,295.927L199.726,295.894L199.743,295.862L199.761,295.831L199.779,295.8L199.796,295.769L199.815,295.739L199.833,295.709L199.851,295.68L199.87,295.652L199.888,295.624L199.907,295.597L199.926,295.57L199.945,295.543L199.965,295.518L199.984,295.493L200.004,295.468L200.023,295.444L200.043,295.421L200.063,295.398L200.083,295.376L200.103,295.354L200.124,295.333L200.144,295.312L200.165,295.292L200.185,295.273L200.206,295.255L200.227,295.237L200.248,295.219L200.269,295.202L200.29,295.186L200.312,295.171L200.333,295.156L200.355,295.142L200.376,295.128L200.398,295.115L200.42,295.103L200.442,295.091L200.464,295.081L200.486,295.07L200.509,295.061L200.531,295.052L200.553,295.044L200.576,295.036L200.599,295.029L200.621,295.023L200.644,295.018L200.667,295.013L200.69,295.009L200.713,295.006L200.736,295.003L200.759,295.001L200.782,295L200.806,295L200.829,295ZM200.795,295.702L200.783,295.702L200.772,295.703L200.761,295.704L200.75,295.706L200.738,295.708L200.727,295.71L200.716,295.713L200.704,295.716L200.693,295.719L200.682,295.723L200.67,295.727L200.659,295.732L200.647,295.737L200.635,295.742L200.624,295.748L200.611,295.754L200.599,295.761L200.587,295.768L200.575,295.776L200.563,295.784L200.55,295.793L200.538,295.802L200.525,295.812L200.512,295.822L200.499,295.832L200.486,295.844L200.473,295.855L200.46,295.868L200.446,295.881L200.433,295.894L200.42,295.908L200.406,295.923L200.392,295.938L200.379,295.953L200.365,295.97L200.351,295.986L200.337,296.004L200.323,296.022L200.31,296.04L200.296,296.059L200.282,296.079L200.268,296.099L200.254,296.12L200.24,296.142L200.226,296.164L200.212,296.186L200.198,296.209L200.184,296.233L200.17,296.257L200.156,296.282L200.143,296.308L200.129,296.334L200.115,296.36L200.101,296.387L200.088,296.415L200.074,296.443L200.061,296.472L200.048,296.501L200.034,296.53L200.021,296.561L200.008,296.591L199.995,296.623L199.982,296.654L199.969,296.687L199.957,296.72L199.944,296.753L199.932,296.786L199.919,296.821L199.907,296.855L199.895,296.891L199.883,296.926L199.871,296.962L199.86,296.999L199.848,297.036L199.837,297.073L199.825,297.111L199.814,297.149L199.803,297.188L199.793,297.227L199.782,297.267L199.772,297.307L199.761,297.347L199.751,297.388L199.741,297.429L199.732,297.471L199.722,297.513L199.713,297.555L199.704,297.598L199.695,297.641L199.686,297.684L199.677,297.728L199.669,297.772L199.661,297.817L199.653,297.862L199.645,297.907L199.637,297.952L199.63,297.998L199.623,298.044L199.616,298.091L199.609,298.138L199.602,298.185L199.596,298.232L199.59,298.28L199.584,298.328L199.578,298.376L199.573,298.425L199.568,298.474L199.563,298.523L199.558,298.572L199.554,298.622L199.549,298.671L199.545,298.722L199.542,298.772L199.538,298.823L199.535,298.873L199.532,298.924L199.529,298.976L199.527,299.027L199.524,299.079L199.523,299.131L199.521,299.183L199.519,299.235L199.518,299.288L199.517,299.341L199.516,299.394L199.516,299.447L199.516,299.5L199.516,299.553L199.516,299.606L199.517,299.659L199.518,299.712L199.519,299.765L199.521,299.817L199.523,299.869L199.524,299.921L199.527,299.973L199.529,300.024L199.532,300.076L199.535,300.127L199.538,300.177L199.542,300.228L199.545,300.278L199.549,300.329L199.554,300.378L199.558,300.428L199.563,300.477L199.568,300.526L199.573,300.575L199.578,300.624L199.584,300.672L199.59,300.72L199.596,300.768L199.602,300.815L199.609,300.862L199.616,300.909L199.623,300.956L199.63,301.002L199.637,301.048L199.645,301.093L199.653,301.138L199.661,301.183L199.669,301.228L199.677,301.272L199.686,301.316L199.695,301.359L199.704,301.402L199.713,301.445L199.722,301.487L199.732,301.529L199.741,301.571L199.751,301.612L199.761,301.653L199.772,301.693L199.782,301.733L199.793,301.773L199.803,301.812L199.814,301.851L199.825,301.889L199.837,301.927L199.848,301.964L199.86,302.001L199.871,302.038L199.883,302.074L199.895,302.109L199.907,302.145L199.919,302.179L199.932,302.214L199.944,302.247L199.957,302.281L199.969,302.313L199.982,302.346L199.995,302.377L200.008,302.409L200.021,302.439L200.034,302.47L200.048,302.499L200.061,302.528L200.074,302.557L200.088,302.585L200.101,302.613L200.115,302.64L200.129,302.666L200.143,302.692L200.156,302.718L200.17,302.743L200.184,302.767L200.198,302.791L200.212,302.814L200.226,302.836L200.24,302.858L200.254,302.88L200.268,302.901L200.282,302.921L200.296,302.941L200.31,302.96L200.323,302.978L200.337,302.996L200.351,303.014L200.365,303.03L200.379,303.047L200.392,303.062L200.406,303.077L200.42,303.092L200.433,303.106L200.446,303.119L200.46,303.132L200.473,303.145L200.486,303.156L200.499,303.168L200.512,303.178L200.525,303.188L200.538,303.198L200.55,303.207L200.563,303.216L200.575,303.224L200.587,303.232L200.6,303.239L200.611,303.246L200.623,303.252L200.635,303.258L200.647,303.263L200.659,303.268L200.67,303.273L200.682,303.277L200.693,303.281L200.705,303.284L200.716,303.287L200.727,303.29L200.738,303.292L200.75,303.294L200.761,303.296L200.772,303.297L200.783,303.298L200.794,303.298L200.806,303.299L200.817,303.298L200.828,303.298L200.84,303.297L200.851,303.296L200.862,303.294L200.873,303.292L200.885,303.29L200.896,303.287L200.907,303.284L200.918,303.281L200.93,303.277L200.941,303.273L200.953,303.268L200.965,303.263L200.976,303.258L200.988,303.252L201,303.246L201.012,303.239L201.024,303.232L201.037,303.224L201.049,303.216L201.061,303.207L201.074,303.198L201.087,303.188L201.1,303.178L201.113,303.168L201.126,303.156L201.139,303.145L201.152,303.132L201.165,303.119L201.179,303.106L201.192,303.092L201.206,303.077L201.219,303.062L201.233,303.047L201.247,303.03L201.261,303.014L201.274,302.996L201.288,302.978L201.302,302.96L201.316,302.941L201.33,302.921L201.344,302.901L201.358,302.88L201.372,302.858L201.386,302.836L201.4,302.814L201.414,302.791L201.428,302.767L201.441,302.743L201.455,302.718L201.469,302.692L201.483,302.666L201.497,302.64L201.51,302.613L201.524,302.585L201.537,302.557L201.551,302.528L201.564,302.499L201.577,302.47L201.591,302.439L201.604,302.408L201.617,302.377L201.63,302.346L201.642,302.313L201.655,302.281L201.668,302.247L201.68,302.214L201.692,302.179L201.705,302.145L201.717,302.109L201.729,302.074L201.74,302.038L201.752,302.001L201.764,301.964L201.775,301.927L201.786,301.889L201.797,301.851L201.808,301.812L201.819,301.773L201.83,301.733L201.84,301.693L201.85,301.653L201.86,301.612L201.87,301.571L201.88,301.529L201.89,301.487L201.899,301.445L201.908,301.402L201.917,301.359L201.926,301.316L201.934,301.272L201.943,301.228L201.951,301.183L201.959,301.138L201.967,301.093L201.975,301.048L201.982,301.002L201.989,300.956L201.996,300.909L202.003,300.862L202.009,300.815L202.016,300.768L202.022,300.72L202.028,300.672L202.033,300.624L202.039,300.575L202.044,300.526L202.049,300.477L202.053,300.428L202.058,300.378L202.062,300.329L202.066,300.278L202.07,300.228L202.073,300.177L202.077,300.127L202.08,300.076L202.082,300.024L202.085,299.973L202.087,299.921L202.089,299.869L202.091,299.817L202.092,299.765L202.094,299.712L202.094,299.659L202.095,299.606L202.096,299.553L202.096,299.5L202.096,299.447L202.095,299.394L202.094,299.341L202.094,299.288L202.092,299.235L202.091,299.183L202.089,299.131L202.087,299.079L202.085,299.027L202.082,298.976L202.08,298.924L202.077,298.873L202.073,298.823L202.07,298.772L202.066,298.722L202.062,298.671L202.058,298.622L202.053,298.572L202.049,298.523L202.044,298.474L202.039,298.425L202.033,298.376L202.028,298.328L202.022,298.28L202.016,298.232L202.009,298.185L202.003,298.138L201.996,298.091L201.989,298.044L201.982,297.998L201.975,297.952L201.967,297.907L201.959,297.862L201.951,297.817L201.943,297.772L201.934,297.728L201.926,297.684L201.917,297.641L201.908,297.598L201.899,297.555L201.89,297.513L201.88,297.471L201.87,297.429L201.86,297.388L201.85,297.347L201.84,297.307L201.83,297.267L201.819,297.227L201.808,297.188L201.797,297.149L201.786,297.111L201.775,297.073L201.764,297.036L201.752,296.999L201.74,296.962L201.729,296.926L201.717,296.891L201.705,296.855L201.692,296.821L201.68,296.786L201.668,296.753L201.655,296.72L201.642,296.687L201.63,296.654L201.617,296.623L201.604,296.591L201.591,296.561L201.577,296.53L201.564,296.501L201.551,296.472L201.537,296.443L201.524,296.415L201.51,296.387L201.497,296.36L201.483,296.334L201.469,296.308L201.455,296.282L201.441,296.257L201.428,296.233L201.414,296.209L201.4,296.186L201.386,296.164L201.372,296.142L201.358,296.12L201.344,296.099L201.33,296.079L201.316,296.059L201.302,296.04L201.288,296.022L201.274,296.004L201.261,295.986L201.247,295.97L201.233,295.953L201.219,295.938L201.206,295.923L201.192,295.908L201.179,295.894L201.165,295.881L201.152,295.868L201.139,295.855L201.126,295.844L201.113,295.832L201.1,295.822L201.087,295.812L201.074,295.802L201.061,295.793L201.049,295.784L201.037,295.776L201.024,295.768L201.012,295.761L201,295.754L200.988,295.748L200.976,295.742L200.965,295.737L200.953,295.732L200.941,295.727L200.93,295.723L200.919,295.719L200.907,295.716L200.896,295.713L200.884,295.71L200.873,295.708L200.862,295.706L200.851,295.704L200.84,295.703L200.828,295.702L200.817,295.702L200.806,295.701L200.795,295.702Z" style="fill:rgb(42,47,53);"/>
            </g>
            <g transform="matrix(1,0,0,1,33,0.5)">
                <path d="M200,306L200,308" style="fill:none;stroke:rgb(42,47,53);stroke-width:1.14px;"/>
            </g>
        </g>
        <g transform="matrix(0.662617,0,0,1.27418,81.8504,-90.9568)">
            <rect x="210" y="277.038" width="12.073" height="32.962" style="fill:rgb(42,47,53);"/>
        </g>
        <g transform="matrix(0.531227,0,0,0.659496,108.021,77.7231)">
            <rect x="198.435" y="292.87" width="45.178" height="12.13" style="fill:rgb(42,47,53);"/>
        </g>
        <g transform="matrix(1,0,0,1,10,-3)">
            <g transform="matrix(0.903226,0,0,1.27273,19.4516,-87)">
                <path d="M232,321.302C230.21,321.302 228.756,320.271 228.756,319L204.244,319C204.244,320.271 202.79,321.302 201,321.302L201,327.698C202.79,327.698 204.244,328.729 204.244,330L228.756,330C228.756,328.729 230.21,327.698 232,327.698L232,321.302Z" style="fill:rgb(145,114,114);"/>
                <path d="M228.756,319.03L228.757,319.059L228.758,319.089L228.76,319.118L228.763,319.148L228.765,319.177L228.769,319.206L228.773,319.235L228.777,319.264L228.782,319.293L228.787,319.322L228.793,319.35L228.8,319.379L228.807,319.407L228.814,319.436L228.822,319.464L228.83,319.492L228.839,319.52L228.848,319.547L228.858,319.575L228.868,319.603L228.879,319.63L228.89,319.657L228.902,319.684L228.914,319.711L228.927,319.738L228.94,319.765L228.953,319.791L228.967,319.818L228.981,319.844L228.996,319.87L229.011,319.896L229.027,319.921L229.043,319.947L229.059,319.972L229.076,319.998L229.093,320.023L229.111,320.048L229.129,320.072L229.148,320.097L229.167,320.121L229.186,320.146L229.226,320.193L229.267,320.24L229.31,320.287L229.355,320.332L229.401,320.377L229.448,320.421L229.497,320.464L229.547,320.506L229.599,320.548L229.652,320.588L229.707,320.628L229.762,320.666L229.819,320.704L229.878,320.741L229.937,320.776L229.998,320.811L230.06,320.845L230.123,320.877L230.187,320.909L230.252,320.939L230.318,320.969L230.386,320.997L230.42,321.011L230.454,321.024L230.489,321.037L230.524,321.05L230.559,321.063L230.594,321.075L230.63,321.087L230.665,321.099L230.702,321.11L230.738,321.121L230.774,321.132L230.811,321.142L230.848,321.153L230.885,321.162L230.922,321.172L230.96,321.181L230.998,321.19L231.036,321.199L231.074,321.207L231.112,321.215L231.151,321.222L231.19,321.23L231.229,321.237L231.268,321.243L231.307,321.249L231.347,321.255L231.386,321.261L231.426,321.266L231.466,321.271L231.506,321.276L231.547,321.28L231.587,321.284L231.628,321.287L231.669,321.29L231.709,321.293L231.751,321.295L231.792,321.298L231.833,321.299L231.875,321.301L231.916,321.301L231.958,321.302L232,321.302L232,327.698L231.958,327.698L231.916,327.699L231.875,327.699L231.833,327.701L231.792,327.702L231.751,327.705L231.709,327.707L231.669,327.71L231.628,327.713L231.587,327.716L231.547,327.72L231.506,327.724L231.466,327.729L231.426,327.734L231.386,327.739L231.347,327.745L231.307,327.751L231.268,327.757L231.229,327.763L231.19,327.77L231.151,327.778L231.112,327.785L231.074,327.793L231.036,327.801L230.998,327.81L230.96,327.819L230.922,327.828L230.885,327.838L230.848,327.847L230.811,327.858L230.774,327.868L230.738,327.879L230.702,327.89L230.665,327.901L230.63,327.913L230.594,327.925L230.559,327.937L230.524,327.95L230.489,327.963L230.454,327.976L230.42,327.989L230.386,328.003L230.318,328.031L230.252,328.061L230.187,328.091L230.123,328.123L230.06,328.155L229.998,328.189L229.937,328.224L229.878,328.259L229.819,328.296L229.762,328.334L229.707,328.372L229.652,328.412L229.599,328.452L229.547,328.494L229.497,328.536L229.448,328.579L229.401,328.623L229.355,328.668L229.31,328.713L229.267,328.76L229.226,328.807L229.186,328.854L229.167,328.879L229.148,328.903L229.129,328.928L229.111,328.952L229.093,328.977L229.076,329.002L229.059,329.028L229.043,329.053L229.027,329.079L229.011,329.104L228.996,329.13L228.981,329.156L228.967,329.182L228.953,329.209L228.94,329.235L228.927,329.262L228.914,329.289L228.902,329.316L228.89,329.343L228.879,329.37L228.868,329.397L228.858,329.425L228.848,329.453L228.839,329.48L228.83,329.508L228.822,329.536L228.814,329.564L228.807,329.593L228.8,329.621L228.793,329.65L228.787,329.678L228.782,329.707L228.777,329.736L228.773,329.765L228.769,329.794L228.765,329.823L228.763,329.852L228.76,329.882L228.758,329.911L228.757,329.941L228.756,329.97L228.756,330L204.244,330L204.244,329.97L204.243,329.941L204.242,329.911L204.24,329.882L204.237,329.852L204.235,329.823L204.231,329.794L204.227,329.765L204.223,329.736L204.218,329.707L204.213,329.678L204.207,329.65L204.2,329.621L204.193,329.593L204.186,329.564L204.178,329.536L204.17,329.508L204.161,329.48L204.152,329.453L204.142,329.425L204.132,329.397L204.121,329.37L204.11,329.343L204.098,329.316L204.086,329.289L204.073,329.262L204.06,329.235L204.047,329.209L204.033,329.182L204.019,329.156L204.004,329.13L203.989,329.104L203.973,329.079L203.957,329.053L203.941,329.028L203.924,329.002L203.907,328.977L203.889,328.952L203.871,328.928L203.852,328.903L203.833,328.879L203.814,328.854L203.774,328.807L203.733,328.76L203.69,328.713L203.645,328.668L203.599,328.623L203.552,328.579L203.503,328.536L203.453,328.494L203.401,328.452L203.348,328.412L203.293,328.372L203.238,328.334L203.181,328.296L203.122,328.259L203.063,328.224L203.002,328.189L202.94,328.155L202.877,328.123L202.813,328.091L202.748,328.061L202.682,328.031L202.614,328.003L202.58,327.989L202.546,327.976L202.511,327.963L202.476,327.95L202.441,327.937L202.406,327.925L202.37,327.913L202.335,327.901L202.298,327.89L202.262,327.879L202.226,327.868L202.189,327.858L202.152,327.847L202.115,327.838L202.078,327.828L202.04,327.819L202.002,327.81L201.964,327.801L201.926,327.793L201.888,327.785L201.849,327.778L201.81,327.77L201.771,327.763L201.732,327.757L201.693,327.751L201.653,327.745L201.614,327.739L201.574,327.734L201.534,327.729L201.494,327.724L201.453,327.72L201.413,327.716L201.372,327.713L201.331,327.71L201.291,327.707L201.249,327.705L201.208,327.702L201.167,327.701L201.125,327.699L201.084,327.699L201.042,327.698L201,327.698L201,321.302L201.042,321.302L201.084,321.301L201.125,321.301L201.167,321.299L201.208,321.298L201.249,321.295L201.291,321.293L201.331,321.29L201.372,321.287L201.413,321.284L201.453,321.28L201.494,321.276L201.534,321.271L201.574,321.266L201.614,321.261L201.653,321.255L201.693,321.249L201.732,321.243L201.771,321.237L201.81,321.23L201.849,321.222L201.888,321.215L201.926,321.207L201.964,321.199L202.002,321.19L202.04,321.181L202.078,321.172L202.115,321.162L202.152,321.153L202.189,321.142L202.226,321.132L202.262,321.121L202.298,321.11L202.335,321.099L202.37,321.087L202.406,321.075L202.441,321.063L202.476,321.05L202.511,321.037L202.546,321.024L202.58,321.011L202.614,320.997L202.682,320.969L202.748,320.939L202.813,320.909L202.877,320.877L202.94,320.845L203.002,320.811L203.063,320.776L203.122,320.741L203.181,320.704L203.238,320.666L203.293,320.628L203.348,320.588L203.401,320.548L203.453,320.506L203.503,320.464L203.552,320.421L203.599,320.377L203.645,320.332L203.69,320.287L203.733,320.24L203.774,320.193L203.814,320.146L203.833,320.121L203.852,320.097L203.871,320.072L203.889,320.048L203.907,320.023L203.924,319.998L203.941,319.972L203.957,319.947L203.973,319.921L203.989,319.896L204.004,319.87L204.019,319.844L204.033,319.818L204.047,319.791L204.06,319.765L204.073,319.738L204.086,319.711L204.098,319.684L204.11,319.657L204.121,319.63L204.132,319.603L204.142,319.575L204.152,319.547L204.161,319.52L204.17,319.492L204.178,319.464L204.186,319.436L204.193,319.407L204.2,319.379L204.207,319.35L204.213,319.322L204.218,319.293L204.223,319.264L204.227,319.235L204.231,319.206L204.235,319.177L204.237,319.148L204.24,319.118L204.242,319.089L204.243,319.059L204.244,319.03L204.244,319L228.756,319L228.756,319.03ZM206.191,320.796L206.173,320.822L206.141,320.867L206.109,320.911L206.076,320.955L206.042,320.998L206.004,321.046L205.937,321.126L205.863,321.21L205.786,321.293L205.707,321.373L205.626,321.453L205.541,321.531L205.455,321.607L205.365,321.682L205.274,321.756L205.179,321.827L205.083,321.898L204.984,321.966L204.883,322.033L204.78,322.098L204.674,322.161L204.566,322.223L204.456,322.283L204.344,322.341L204.23,322.397L204.114,322.451L203.996,322.503L203.883,322.551L203.816,322.578L203.754,322.602L203.692,322.626L203.631,322.648L203.568,322.671L203.531,322.684L203.531,326.316L203.568,326.329L203.631,326.352L203.692,326.374L203.754,326.398L203.816,326.422L203.883,326.449L203.996,326.497L204.114,326.549L204.23,326.603L204.344,326.659L204.456,326.717L204.566,326.777L204.674,326.839L204.78,326.902L204.883,326.967L204.984,327.034L205.083,327.102L205.179,327.173L205.274,327.244L205.365,327.318L205.455,327.393L205.541,327.469L205.626,327.547L205.707,327.627L205.786,327.707L205.863,327.79L205.937,327.874L206.004,327.954L206.042,328.002L206.076,328.045L206.109,328.089L206.141,328.133L206.173,328.178L206.191,328.204L226.809,328.204L226.827,328.178L226.859,328.133L226.891,328.089L226.924,328.045L226.958,328.002L226.996,327.954L227.063,327.874L227.137,327.79L227.214,327.707L227.293,327.627L227.374,327.547L227.459,327.469L227.545,327.393L227.635,327.318L227.726,327.244L227.821,327.173L227.917,327.102L228.016,327.034L228.117,326.967L228.22,326.902L228.326,326.839L228.434,326.777L228.544,326.717L228.656,326.659L228.77,326.603L228.886,326.549L229.004,326.497L229.117,326.449L229.184,326.422L229.246,326.398L229.308,326.374L229.369,326.352L229.432,326.329L229.469,326.316L229.469,322.684L229.432,322.671L229.369,322.648L229.308,322.626L229.246,322.602L229.184,322.578L229.117,322.551L229.004,322.503L228.886,322.451L228.77,322.397L228.656,322.341L228.544,322.283L228.434,322.223L228.326,322.161L228.22,322.098L228.117,322.033L228.016,321.966L227.917,321.898L227.821,321.827L227.726,321.756L227.635,321.682L227.545,321.607L227.459,321.531L227.374,321.453L227.293,321.373L227.214,321.293L227.137,321.21L227.063,321.126L226.996,321.046L226.958,320.998L226.924,320.955L226.891,320.911L226.859,320.867L226.827,320.822L226.809,320.796L206.191,320.796Z" style="fill:rgb(42,47,53);"/>
            </g>
            <g transform="matrix(1.5,0,0,0.75,-104,81)">
                <rect x="208" y="324" width="6" height="2" style="fill:rgb(42,47,53);"/>
            </g>
            <g transform="matrix(2.33333,0,0,0.75,-277.333,83.75)">
                <rect x="208" y="324" width="6" height="2" style="fill:rgb(42,47,53);"/>
            </g>
        </g>
        <g transform="matrix(1,0,0,1.03175,11,-7.93787)">
            <path d="M235,296.523L235,250" style="fill:none;stroke:rgb(42,47,53);stroke-width:1.12px;"/>
        </g>
        <g transform="matrix(1,0,0,1,11,0)">
            <path d="M250,306L253,306" style="fill:none;stroke:rgb(42,47,53);stroke-width:0.57px;"/>
        </g>
        <g transform="matrix(1,0,0,1,-6,0)">
            <path d="M275,341L275,344" style="fill:none;stroke:rgb(42,47,53);stroke-width:0.57px;"/>
        </g>
        <g transform="matrix(1,0,0,1,11,0)">
            <path d="M266,346.462L266,344" style="fill:none;stroke:rgb(42,47,53);stroke-width:0.57px;"/>
        </g>
        <g transform="matrix(1,0,0,1,-11,0)">
            <path d="M284,353L280,353" style="fill:none;stroke:rgb(42,47,53);stroke-width:0.57px;"/>
        </g>
        <g transform="matrix(1,0,0,1,11,-2)">
            <path d="M268,355L273,355" style="fill:none;stroke:rgb(42,47,53);stroke-width:0.57px;"/>
        </g>
        <g transform="matrix(1,0,0,1,-1,0)">
            <path d="M258,357L258,354" style="fill:none;stroke:rgb(42,47,53);stroke-width:0.57px;"/>
        </g>
        <g transform="matrix(1,0,0,1,11,0)">
            <path d="M201,350L201,353" style="fill:none;stroke:rgb(42,47,53);stroke-width:0.57px;"/>
        </g>
        <g transform="matrix(1,0,0,1,11,0)">
            <path d="M218,342L218,344" style="fill:none;stroke:rgb(42,47,53);stroke-width:0.57px;"/>
        </g>
        <g transform="matrix(1,0,0,1,11,0)">
            <path d="M242,338L242,320" style="fill:none;stroke:rgb(42,47,53);stroke-width:0.57px;"/>
        </g>
        <g transform="matrix(1,0,0,0.727273,11,87.8182)">
            <path d="M191,322L191,333" style="fill:none;stroke:rgb(42,47,53);stroke-width:0.65px;"/>
        </g>
        <g transform="matrix(1,0,0,1,11,0)">
            <path d="M200,297L200,312" style="fill:none;stroke:rgb(42,47,53);stroke-width:0.57px;"/>
        </g>
        <g transform="matrix(1,0,0,1,11,0)">
            <path d="M205,287L205,293" style="fill:none;stroke:rgb(42,47,53);stroke-width:0.57px;"/>
        </g>
        <g transform="matrix(1,0,0,1,11,0)">
            <path d="M198,251L198,261" style="fill:none;stroke:rgb(42,47,53);stroke-width:0.57px;"/>
        </g>
        <g transform="matrix(1,0,0,1,11,0)">
            <path d="M225,259L225,263" style="fill:none;stroke:rgb(42,47,53);stroke-width:0.57px;"/>
        </g>
        <g transform="matrix(1,0,0,1,11,0)">
            <path d="M242,286L242,296" style="fill:none;stroke:rgb(42,47,53);stroke-width:0.57px;"/>
        </g>
        <g transform="matrix(1,0,0,1,11,0)">
            <path d="M245,290L245,294" style="fill:none;stroke:rgb(42,47,53);stroke-width:0.57px;"/>
        </g>
        <g transform="matrix(1,0,0,1,11,0)">
            <path d="M225,290L225,299" style="fill:none;stroke:rgb(42,47,53);stroke-width:0.57px;"/>
        </g>
        <g transform="matrix(1,0,0,1,11,0)">
            <path d="M246,262L249,262" style="fill:none;stroke:rgb(42,47,53);stroke-width:0.57px;"/>
        </g>
        <g transform="matrix(1,0,0,1,11,0)">
            <path d="M255,268L251,268" style="fill:none;stroke:rgb(42,47,53);stroke-width:0.57px;"/>
        </g>
        <g transform="matrix(1,0,0,1,11,0)">
            <path d="M248,279L252,279" style="fill:none;stroke:rgb(42,47,53);stroke-width:0.57px;"/>
        </g>
        <g transform="matrix(1,0,0,1,11,0)">
            <path d="M250.473,286L253,286" style="fill:none;stroke:rgb(42,47,53);stroke-width:0.57px;"/>
        </g>
        <g transform="matrix(1,0,0,1,11,0)">
            <path d="M255,294L251,294" style="fill:none;stroke:rgb(42,47,53);stroke-width:0.57px;"/>
        </g>
        <g transform="matrix(1,0,0,1,11,0)">
            <path d="M248,300L252,300" style="fill:none;stroke:rgb(42,47,53);stroke-width:0.57px;"/>
        </g>
        <g transform="matrix(1,0,0,1,11,0)">
            <path d="M250.455,321L253,321" style="fill:none;stroke:rgb(42,47,53);stroke-width:0.57px;"/>
        </g>
        <g transform="matrix(1,0,0,1,11,0)">
            <path d="M248,331L252,331" style="fill:none;stroke:rgb(42,47,53);stroke-width:0.57px;"/>
        </g>
        <g transform="matrix(1,0,0,1,11,0)">
            <path d="M255,335L252,335" style="fill:none;stroke:rgb(42,47,53);stroke-width:0.57px;"/>
        </g>
    </g>
</svg>
