<svg version="1.1" id="Layer_2" xmlns="http://www.w3.org/2000/svg" xmlns:xlink="http://www.w3.org/1999/xlink" x="0px" y="0px"
	 width="60px" height="60px" viewBox="0 0 750 750" enable-background="new 0 0 750 750" xml:space="preserve">
<path fill="#B2181F" stroke="#770A0A" stroke-width="6" stroke-miterlimit="10" d="M222.667,743c0,0,0.667-15.665,0-24.999
	s-3.929-25.832-3.929-34.499s3.188-29.585,4.225-36.918s1.333-32.126-2.482-38.792s-6.481-30.729-7.814-41.396
	s-7.333-27.364-9.333-40.031s-3.333-46.683,0-60.016s4-34.009,4-46.675s-4-34.004-2-44.004s4-34.001,10-41.335
	s20.149-19.324,22.976-28.272c6.106-19.335-3.643-43.062-6.309-47.729s-19.337-49.514-21.337-64.847s-13.63-42.487,8.854-61.82
	S259.333,95.667,270,93s22.664-0.666,25.331-4c0,0-3.335-2.609,5.332-22.609s16.004-28.724,30.671-32.058s17.333-3.334,36,7.333
	S390.667,60.334,394.667,69s2.001,18.667-4.666,26s-15.334,15.333-22,16s-10.668-7.333-14.668,4.667s-5.331,17.333-0.665,22.667
	s9.333,6.666,12,13.333s6.677,12.269-7.332,23.233c-4.516,3.534-5.242,7.649-2.001,26.101c3.429,19.522,4.667,32.667,13.333,36.667
	s15.333,2.667,17.333-6s11.438-50,10.719-62s7.947-38,13.947-51.333s32.498-53.456,38.765-62.416
	C457.998,43.668,480.56,32.36,485.896,33c6.078,0.728,18.105,7.334,17.438,25.334S487.333,91,484.667,97.667s-11.332,22-12.666,30
	s-10.667,26.667-10.667,34s-7.334,9.333-6.667,16s-4,32-4,38.667s-3.333,26.666-3.333,35.333s8,33.333,8,44s0.666,26,3.333,34.667
	s5.333,14,6,22.667s0.668,16,3.334,20s3.997,13.936,8-7c1.763-9.219,7.333-20.333,7.333-27.666s4.667-30,8-35.333
	s21.999-30,33.333-35.333s22.666-5.333,28-4.667s16,8,16.667,14s-3.333,21.333-9.333,34.667S548,351.001,544.667,354.334
	s-9.333,17.333-10,25.333s-6,31.333-6,42s0.667,23.334-4,34.667s-7.334,16.667-12.667,28S496.665,511.667,491.999,519
	s-15.333,29.334-20.667,36.667s-3.998,14-11.998,20s-15.333,8-20,14s-8.001,2.001-11.334,12.667s-9.334,30.667-10,38
	s-0.001,37.333,0.666,46.666s1.333,27,2,37s0.667,19,0.667,19H222.667z"/>
<path fill="none" stroke="#770A0A" stroke-width="6" stroke-miterlimit="10" d="M357.335,174.9c0,0-16.744,10.695-30.744,10.695
	s-24.593-3.264-31.26-11.931s-9.333-8.667-9.333-8.667s-12,5.333-12.667,10.333s4,8.333,6,16.333s5.334,18.666,6.667,27.333
	s2.667,19.333,6,19.333s4.666-4.667,3.333-13.333s-3.333-18.666-4.667-29.333s-2.225-22.26-0.892-28.26"/>
</svg>
